ISO-10303-21;
HEADER;
FILE_DESCRIPTION(('Open CASCADE Model'),'2;1');
FILE_NAME('Open CASCADE Shape Model','2026-09-14T00:12:24',('Author'),(
    'Open CASCADE'),'Open CASCADE STEP processor 7.9','Open CASCADE 7.9'
  ,'Unknown');
FILE_SCHEMA(('AUTOMOTIVE_DESIGN { 1 0 10303 214 1 1 1 1 }'));
ENDSEC;
DATA;
#1 = APPLICATION_PROTOCOL_DEFINITION('international standard',
  'automotive_design',2000,#2);
#2 = APPLICATION_CONTEXT(
  'core data for automotive mechanical design processes');
#3 = SHAPE_DEFINITION_REPRESENTATION(#4,#10);
#4 = PRODUCT_DEFINITION_SHAPE('','',#5);
#5 = PRODUCT_DEFINITION('design','',#6,#9);
#6 = PRODUCT_DEFINITION_FORMATION('','',#7);
#7 = PRODUCT('Open CASCADE STEP translator 7.9 1',
  'Open CASCADE STEP translator 7.9 1','',(#8));
#8 = PRODUCT_CONTEXT('',#2,'mechanical');
#9 = PRODUCT_DEFINITION_CONTEXT('part definition',#2,'design');
#10 = ADVANCED_BREP_SHAPE_REPRESENTATION('',(#11,#15),#1133);
#11 = AXIS2_PLACEMENT_3D('',#12,#13,#14);
#12 = CARTESIAN_POINT('',(0.,0.,0.));
#13 = DIRECTION('',(0.,0.,1.));
#14 = DIRECTION('',(1.,0.,-0.));
#15 = MANIFOLD_SOLID_BREP('',#16);
#16 = CLOSED_SHELL('',(#17,#320,#359,#410,#465,#740,#795,#834,#869,#924,
    #963,#1013,#1065,#1072,#1126));
#17 = ADVANCED_FACE('',(#18,#104),#31,.T.);
#18 = FACE_BOUND('',#19,.F.);
#19 = EDGE_LOOP('',(#20,#54,#77,#103));
#20 = ORIENTED_EDGE('',*,*,#21,.F.);
#21 = EDGE_CURVE('',#22,#22,#24,.T.);
#22 = VERTEX_POINT('',#23);
#23 = CARTESIAN_POINT('',(15.77,0.,0.));
#24 = SURFACE_CURVE('',#25,(#30,#42),.PCURVE_S1.);
#25 = CIRCLE('',#26,15.77);
#26 = AXIS2_PLACEMENT_3D('',#27,#28,#29);
#27 = CARTESIAN_POINT('',(0.,0.,0.));
#28 = DIRECTION('',(0.,0.,1.));
#29 = DIRECTION('',(1.,0.,0.));
#30 = PCURVE('',#31,#36);
#31 = CYLINDRICAL_SURFACE('',#32,15.77);
#32 = AXIS2_PLACEMENT_3D('',#33,#34,#35);
#33 = CARTESIAN_POINT('',(0.,0.,0.));
#34 = DIRECTION('',(-0.,-0.,-1.));
#35 = DIRECTION('',(1.,0.,0.));
#36 = DEFINITIONAL_REPRESENTATION('',(#37),#41);
#37 = LINE('',#38,#39);
#38 = CARTESIAN_POINT('',(-0.,0.));
#39 = VECTOR('',#40,1.);
#40 = DIRECTION('',(-1.,0.));
#41 = ( GEOMETRIC_REPRESENTATION_CONTEXT(2) 
PARAMETRIC_REPRESENTATION_CONTEXT() REPRESENTATION_CONTEXT('2D SPACE',''
  ) );
#42 = PCURVE('',#43,#48);
#43 = PLANE('',#44);
#44 = AXIS2_PLACEMENT_3D('',#45,#46,#47);
#45 = CARTESIAN_POINT('',(-1.387383774295E-15,7.436277735431E-16,0.));
#46 = DIRECTION('',(0.,0.,1.));
#47 = DIRECTION('',(1.,0.,-0.));
#48 = DEFINITIONAL_REPRESENTATION('',(#49),#53);
#49 = CIRCLE('',#50,15.77);
#50 = AXIS2_PLACEMENT_2D('',#51,#52);
#51 = CARTESIAN_POINT('',(1.387383774295E-15,-7.436277735431E-16));
#52 = DIRECTION('',(1.,0.));
#53 = ( GEOMETRIC_REPRESENTATION_CONTEXT(2) 
PARAMETRIC_REPRESENTATION_CONTEXT() REPRESENTATION_CONTEXT('2D SPACE',''
  ) );
#54 = ORIENTED_EDGE('',*,*,#55,.T.);
#55 = EDGE_CURVE('',#22,#56,#58,.T.);
#56 = VERTEX_POINT('',#57);
#57 = CARTESIAN_POINT('',(15.77,0.,72.));
#58 = SEAM_CURVE('',#59,(#63,#70),.PCURVE_S1.);
#59 = LINE('',#60,#61);
#60 = CARTESIAN_POINT('',(15.77,0.,0.));
#61 = VECTOR('',#62,1.);
#62 = DIRECTION('',(0.,0.,1.));
#63 = PCURVE('',#31,#64);
#64 = DEFINITIONAL_REPRESENTATION('',(#65),#69);
#65 = LINE('',#66,#67);
#66 = CARTESIAN_POINT('',(-6.28318530718,0.));
#67 = VECTOR('',#68,1.);
#68 = DIRECTION('',(-0.,-1.));
#69 = ( GEOMETRIC_REPRESENTATION_CONTEXT(2) 
PARAMETRIC_REPRESENTATION_CONTEXT() REPRESENTATION_CONTEXT('2D SPACE',''
  ) );
#70 = PCURVE('',#31,#71);
#71 = DEFINITIONAL_REPRESENTATION('',(#72),#76);
#72 = LINE('',#73,#74);
#73 = CARTESIAN_POINT('',(-0.,0.));
#74 = VECTOR('',#75,1.);
#75 = DIRECTION('',(-0.,-1.));
#76 = ( GEOMETRIC_REPRESENTATION_CONTEXT(2) 
PARAMETRIC_REPRESENTATION_CONTEXT() REPRESENTATION_CONTEXT('2D SPACE',''
  ) );
#77 = ORIENTED_EDGE('',*,*,#78,.T.);
#78 = EDGE_CURVE('',#56,#56,#79,.T.);
#79 = SURFACE_CURVE('',#80,(#85,#92),.PCURVE_S1.);
#80 = CIRCLE('',#81,15.77);
#81 = AXIS2_PLACEMENT_3D('',#82,#83,#84);
#82 = CARTESIAN_POINT('',(0.,0.,72.));
#83 = DIRECTION('',(0.,0.,1.));
#84 = DIRECTION('',(1.,0.,0.));
#85 = PCURVE('',#31,#86);
#86 = DEFINITIONAL_REPRESENTATION('',(#87),#91);
#87 = LINE('',#88,#89);
#88 = CARTESIAN_POINT('',(-0.,-72.));
#89 = VECTOR('',#90,1.);
#90 = DIRECTION('',(-1.,0.));
#91 = ( GEOMETRIC_REPRESENTATION_CONTEXT(2) 
PARAMETRIC_REPRESENTATION_CONTEXT() REPRESENTATION_CONTEXT('2D SPACE',''
  ) );
#92 = PCURVE('',#93,#98);
#93 = CONICAL_SURFACE('',#94,15.77,0.59831545412);
#94 = AXIS2_PLACEMENT_3D('',#95,#96,#97);
#95 = CARTESIAN_POINT('',(0.,0.,72.));
#96 = DIRECTION('',(-0.,-0.,-1.));
#97 = DIRECTION('',(1.,0.,0.));
#98 = DEFINITIONAL_REPRESENTATION('',(#99),#102);
#99 = B_SPLINE_CURVE_WITH_KNOTS('',1,(#100,#101),.UNSPECIFIED.,.F.,.F.,(
    2,2),(0.,6.28318530718),.PIECEWISE_BEZIER_KNOTS.);
#100 = CARTESIAN_POINT('',(0.,0.));
#101 = CARTESIAN_POINT('',(-6.28318530718,0.));
#102 = ( GEOMETRIC_REPRESENTATION_CONTEXT(2) 
PARAMETRIC_REPRESENTATION_CONTEXT() REPRESENTATION_CONTEXT('2D SPACE',''
  ) );
#103 = ORIENTED_EDGE('',*,*,#55,.F.);
#104 = FACE_BOUND('',#105,.F.);
#105 = EDGE_LOOP('',(#106));
#106 = ORIENTED_EDGE('',*,*,#107,.T.);
#107 = EDGE_CURVE('',#108,#108,#110,.T.);
#108 = VERTEX_POINT('',#109);
#109 = CARTESIAN_POINT('',(3.5,-15.37669990602,50.4));
#110 = SURFACE_CURVE('',#111,(#177,#246),.PCURVE_S1.);
#111 = B_SPLINE_CURVE_WITH_KNOTS('',8,(#112,#113,#114,#115,#116,#117,
    #118,#119,#120,#121,#122,#123,#124,#125,#126,#127,#128,#129,#130,
    #131,#132,#133,#134,#135,#136,#137,#138,#139,#140,#141,#142,#143,
    #144,#145,#146,#147,#148,#149,#150,#151,#152,#153,#154,#155,#156,
    #157,#158,#159,#160,#161,#162,#163,#164,#165,#166,#167,#168,#169,
    #170,#171,#172,#173,#174,#175,#176),.UNSPECIFIED.,.T.,.F.,(9,7,7,7,7
    ,7,7,7,7,9),(0.,0.105600891717,0.204177849126,0.282785848107,
    0.369642014166,0.472147935329,0.587218800358,0.754916025301,
    0.860796983863,1.),.UNSPECIFIED.);
#112 = CARTESIAN_POINT('',(3.5,-15.37669990602,50.4));
#113 = CARTESIAN_POINT('',(3.5,-15.37669990602,50.649274019265));
#114 = CARTESIAN_POINT('',(3.479710440838,-15.38131829067,
    50.898421573822));
#115 = CARTESIAN_POINT('',(3.439165936647,-15.39054656246,
    51.146448234901));
#116 = CARTESIAN_POINT('',(3.378200572826,-15.40426585933,
    51.392318890344));
#117 = CARTESIAN_POINT('',(3.296468466854,-15.42224025564,51.63489585665
    ));
#118 = CARTESIAN_POINT('',(3.193466516923,-15.44409857775,
    51.872858771965));
#119 = CARTESIAN_POINT('',(3.068559338388,-15.46930473413,
    52.104606270032));
#120 = CARTESIAN_POINT('',(2.783267769845,-15.5230785114,52.536804522399
    ));
#121 = CARTESIAN_POINT('',(2.625351429538,-15.55139482195,
    52.738984850468));
#122 = CARTESIAN_POINT('',(2.446628700882,-15.5814512326,52.932672176847
    ));
#123 = CARTESIAN_POINT('',(2.246569194934,-15.61243524102,
    53.115515467929));
#124 = CARTESIAN_POINT('',(2.024796752148,-15.64332134644,
    53.284786044994));
#125 = CARTESIAN_POINT('',(1.781172337426,-15.67285823383,
    53.437322414501));
#126 = CARTESIAN_POINT('',(1.515919983021,-15.69959379466,
    53.569443881765));
#127 = CARTESIAN_POINT('',(1.001661353724,-15.73982038317,
    53.762448373553));
#128 = CARTESIAN_POINT('',(0.759641873153,-15.75494420217,
    53.832568651717));
#129 = CARTESIAN_POINT('',(0.507029113609,-15.76629937438,
    53.883709402483));
#130 = CARTESIAN_POINT('',(0.247540495758,-15.77303729124,
    53.913540821819));
#131 = CARTESIAN_POINT('',(-1.482889685717E-02,-15.77467719787,
    53.920849791612));
#132 = CARTESIAN_POINT('',(-0.275980101081,-15.77118587175,
    53.905532653103));
#133 = CARTESIAN_POINT('',(-0.531893753923,-15.76296648161,
    53.868607743052));
#134 = CARTESIAN_POINT('',(-1.051662562953,-15.73726561831,
    53.749973904199));
#135 = CARTESIAN_POINT('',(-1.311268665639,-15.71901420369,
    53.66448934057));
#136 = CARTESIAN_POINT('',(-1.556094927634,-15.69698023976,
    53.558684034327));
#137 = CARTESIAN_POINT('',(-1.784995396178,-15.67222610574,
    53.435318118581));
#138 = CARTESIAN_POINT('',(-1.99716662864,-15.64580931263,
    53.297060738567));
#139 = CARTESIAN_POINT('',(-2.192110784786,-15.61871308246,
    53.146515951838));
#140 = CARTESIAN_POINT('',(-2.369619997707,-15.59179689758,
    52.986235617067));
#141 = CARTESIAN_POINT('',(-2.718802063347,-15.53504707526,
    52.621019809274));
#142 = CARTESIAN_POINT('',(-2.885063509518,-15.50533302602,
    52.411774337793));
#143 = CARTESIAN_POINT('',(-3.029320820856,-15.47761732978,
    52.193531493935));
#144 = CARTESIAN_POINT('',(-3.152333077388,-15.45265426526,
    51.968289996128));
#145 = CARTESIAN_POINT('',(-3.254794714431,-15.43100446042,
    51.737633868114));
#146 = CARTESIAN_POINT('',(-3.337279026468,-15.41307310747,
    51.502843088179));
#147 = CARTESIAN_POINT('',(-3.400194440672,-15.39914186487,
    51.264979663812));
#148 = CARTESIAN_POINT('',(-3.492652057812,-15.37845221076,
    50.755496200305));
#149 = CARTESIAN_POINT('',(-3.517106229099,-15.37279361657,
    50.483598013532));
#150 = CARTESIAN_POINT('',(-3.517472633644,-15.37266416449,
    50.210711123705));
#151 = CARTESIAN_POINT('',(-3.493848814731,-15.37813485181,
    49.938195437388));
#152 = CARTESIAN_POINT('',(-3.446094952179,-15.38911487902,
    49.667409872756));
#153 = CARTESIAN_POINT('',(-3.373849868027,-15.4053451671,
    49.399821939923));
#154 = CARTESIAN_POINT('',(-3.276541384987,-15.42637268522,
    49.137131244311));
#155 = CARTESIAN_POINT('',(-2.973919270476,-15.48813274207,
    48.508729948454));
#156 = CARTESIAN_POINT('',(-2.734068487544,-15.53460173379,
    48.139437453165));
#157 = CARTESIAN_POINT('',(-2.428911454029,-15.58901070423,
    47.788533842907));
#158 = CARTESIAN_POINT('',(-2.057059117245,-15.64708512268,
    47.471931994326));
#159 = CARTESIAN_POINT('',(-1.620395716966,-15.70202598008,
    47.206298396128));
#160 = CARTESIAN_POINT('',(-1.124496710016,-15.74572694872,
    47.009362394194));
#161 = CARTESIAN_POINT('',(-0.578727112853,-15.77,46.9));
#162 = CARTESIAN_POINT('',(0.36539770694,-15.77,46.9));
#163 = CARTESIAN_POINT('',(0.722810231853,-15.76032384111,
    46.943596440735));
#164 = CARTESIAN_POINT('',(1.066177764861,-15.74171312624,
    47.027457412371));
#165 = CARTESIAN_POINT('',(1.390164777085,-15.71574654763,
    47.147335806336));
#166 = CARTESIAN_POINT('',(1.690272493303,-15.68461475076,
    47.298074561975));
#167 = CARTESIAN_POINT('',(1.963012276865,-15.65074662047,
    47.473604101929));
#168 = CARTESIAN_POINT('',(2.206110974854,-15.61641013806,
    47.666943631422));
#169 = CARTESIAN_POINT('',(2.698238049377,-15.54002652459,48.13746529224
    ));
#170 = CARTESIAN_POINT('',(2.932978717136,-15.49772387022,
    48.429461830977));
#171 = CARTESIAN_POINT('',(3.124893650102,-15.45942662435,
    48.738744272641));
#172 = CARTESIAN_POINT('',(3.276054751252,-15.42713930896,
    49.060079181201));
#173 = CARTESIAN_POINT('',(3.388225992328,-15.40214214301,
    49.389593838056));
#174 = CARTESIAN_POINT('',(3.462666015434,-15.38519755569,
    49.724317603689));
#175 = CARTESIAN_POINT('',(3.5,-15.37669990602,50.061866036788));
#176 = CARTESIAN_POINT('',(3.5,-15.37669990602,50.4));
#177 = PCURVE('',#31,#178);
#178 = DEFINITIONAL_REPRESENTATION('',(#179),#245);
#179 = B_SPLINE_CURVE_WITH_KNOTS('',8,(#180,#181,#182,#183,#184,#185,
    #186,#187,#188,#189,#190,#191,#192,#193,#194,#195,#196,#197,#198,
    #199,#200,#201,#202,#203,#204,#205,#206,#207,#208,#209,#210,#211,
    #212,#213,#214,#215,#216,#217,#218,#219,#220,#221,#222,#223,#224,
    #225,#226,#227,#228,#229,#230,#231,#232,#233,#234,#235,#236,#237,
    #238,#239,#240,#241,#242,#243,#244),.UNSPECIFIED.,.F.,.F.,(9,7,7,7,7
    ,7,7,7,7,9),(0.,0.105600891717,0.204177849126,0.282785848107,
    0.369642014166,0.472147935329,0.587218800358,0.754916025301,
    0.860796983863,1.),.UNSPECIFIED.);
#180 = CARTESIAN_POINT('',(-4.936193025573,-50.4));
#181 = CARTESIAN_POINT('',(-4.936193025573,-50.64927401926));
#182 = CARTESIAN_POINT('',(-4.934873518447,-50.89842157382));
#183 = CARTESIAN_POINT('',(-4.932236786134,-51.1464482349));
#184 = CARTESIAN_POINT('',(-4.92827420894,-51.39231889034));
#185 = CARTESIAN_POINT('',(-4.922967729607,-51.63489585665));
#186 = CARTESIAN_POINT('',(-4.916291204408,-51.87285877196));
#187 = CARTESIAN_POINT('',(-4.908211641254,-52.10460627003));
#188 = CARTESIAN_POINT('',(-4.889802308948,-52.53680452239));
#189 = CARTESIAN_POINT('',(-4.879629276719,-52.73898485046));
#190 = CARTESIAN_POINT('',(-4.868138218263,-52.93267217684));
#191 = CARTESIAN_POINT('',(-4.855303203813,-53.11551546792));
#192 = CARTESIAN_POINT('',(-4.841108340121,-53.28478604499));
#193 = CARTESIAN_POINT('',(-4.825551527304,-53.4373224145));
#194 = CARTESIAN_POINT('',(-4.808650483945,-53.56944388176));
#195 = CARTESIAN_POINT('',(-4.775940937855,-53.76244837355));
#196 = CARTESIAN_POINT('',(-4.760566004243,-53.83256865171));
#197 = CARTESIAN_POINT('',(-4.744535549387,-53.88370940248));
#198 = CARTESIAN_POINT('',(-4.728081403688,-53.91354082181));
#199 = CARTESIAN_POINT('',(-4.711450137761,-53.92084979161));
#200 = CARTESIAN_POINT('',(-4.694893681493,-53.9055326531));
#201 = CARTESIAN_POINT('',(-4.678659810369,-53.86860774305));
#202 = CARTESIAN_POINT('',(-4.645660201439,-53.74997390419));
#203 = CARTESIAN_POINT('',(-4.629161125875,-53.66448934057));
#204 = CARTESIAN_POINT('',(-4.613578290611,-53.55868403432));
#205 = CARTESIAN_POINT('',(-4.598982981422,-53.43531811858));
#206 = CARTESIAN_POINT('',(-4.585427956321,-53.29706073856));
#207 = CARTESIAN_POINT('',(-4.572949005314,-53.14651595183));
#208 = CARTESIAN_POINT('',(-4.561564865205,-52.98623561706));
#209 = CARTESIAN_POINT('',(-4.539132172669,-52.62101980927));
#210 = CARTESIAN_POINT('',(-4.528423548532,-52.41177433779));
#211 = CARTESIAN_POINT('',(-4.519109795253,-52.19353149393));
#212 = CARTESIAN_POINT('',(-4.511150998504,-51.96828999612));
#213 = CARTESIAN_POINT('',(-4.504510523145,-51.73763386811));
#214 = CARTESIAN_POINT('',(-4.499157979755,-51.50284308817));
#215 = CARTESIAN_POINT('',(-4.495071785936,-51.26497966381));
#216 = CARTESIAN_POINT('',(-4.489063907103,-50.7554962003));
#217 = CARTESIAN_POINT('',(-4.487472302329,-50.48359801353));
#218 = CARTESIAN_POINT('',(-4.487447779883,-50.2107111237));
#219 = CARTESIAN_POINT('',(-4.488985460203,-49.93819543738));
#220 = CARTESIAN_POINT('',(-4.492092656936,-49.66740987275));
#221 = CARTESIAN_POINT('',(-4.496787859171,-49.39982193992));
#222 = CARTESIAN_POINT('',(-4.503100351364,-49.13713124431));
#223 = CARTESIAN_POINT('',(-4.522685634674,-48.50872994845));
#224 = CARTESIAN_POINT('',(-4.538176980551,-48.13943745316));
#225 = CARTESIAN_POINT('',(-4.557829000402,-47.7885338429));
#226 = CARTESIAN_POINT('',(-4.581682579901,-47.47193199432));
#227 = CARTESIAN_POINT('',(-4.609561852341,-47.20629839612));
#228 = CARTESIAN_POINT('',(-4.641082915554,-47.00936239419));
#229 = CARTESIAN_POINT('',(-4.675691002398,-46.9));
#230 = CARTESIAN_POINT('',(-4.735559412023,-46.9));
#231 = CARTESIAN_POINT('',(-4.75822350765,-46.94359644073));
#232 = CARTESIAN_POINT('',(-4.780015856597,-47.02745741237));
#233 = CARTESIAN_POINT('',(-4.800613889787,-47.14733580633));
#234 = CARTESIAN_POINT('',(-4.819737890043,-47.29807456197));
#235 = CARTESIAN_POINT('',(-4.837161429168,-47.47360410192));
#236 = CARTESIAN_POINT('',(-4.852728233365,-47.66694363142));
#237 = CARTESIAN_POINT('',(-4.884308423084,-48.13746529224));
#238 = CARTESIAN_POINT('',(-4.899428995595,-48.42946183097));
#239 = CARTESIAN_POINT('',(-4.911835883555,-48.73874427264));
#240 = CARTESIAN_POINT('',(-4.921636631588,-49.0600791812));
#241 = CARTESIAN_POINT('',(-4.928923956615,-49.38959383805));
#242 = CARTESIAN_POINT('',(-4.933765073103,-49.72431760368));
#243 = CARTESIAN_POINT('',(-4.936193025573,-50.06186603678));
#244 = CARTESIAN_POINT('',(-4.936193025573,-50.4));
#245 = ( GEOMETRIC_REPRESENTATION_CONTEXT(2) 
PARAMETRIC_REPRESENTATION_CONTEXT() REPRESENTATION_CONTEXT('2D SPACE',''
  ) );
#246 = PCURVE('',#247,#252);
#247 = CYLINDRICAL_SURFACE('',#248,3.5);
#248 = AXIS2_PLACEMENT_3D('',#249,#250,#251);
#249 = CARTESIAN_POINT('',(0.,0.,50.4));
#250 = DIRECTION('',(-0.,1.,-0.));
#251 = DIRECTION('',(1.,0.,0.));
#252 = DEFINITIONAL_REPRESENTATION('',(#253),#319);
#253 = B_SPLINE_CURVE_WITH_KNOTS('',8,(#254,#255,#256,#257,#258,#259,
    #260,#261,#262,#263,#264,#265,#266,#267,#268,#269,#270,#271,#272,
    #273,#274,#275,#276,#277,#278,#279,#280,#281,#282,#283,#284,#285,
    #286,#287,#288,#289,#290,#291,#292,#293,#294,#295,#296,#297,#298,
    #299,#300,#301,#302,#303,#304,#305,#306,#307,#308,#309,#310,#311,
    #312,#313,#314,#315,#316,#317,#318),.UNSPECIFIED.,.F.,.F.,(9,7,7,7,7
    ,7,7,7,7,9),(0.,0.105600891717,0.204177849126,0.282785848107,
    0.369642014166,0.472147935329,0.587218800358,0.754916025301,
    0.860796983863,1.),.UNSPECIFIED.);
#254 = CARTESIAN_POINT('',(0.,-15.37669990602));
#255 = CARTESIAN_POINT('',(-7.122114836154E-02,-15.37669990602));
#256 = CARTESIAN_POINT('',(-0.142406526194,-15.38131829067));
#257 = CARTESIAN_POINT('',(-0.213820871827,-15.39054656246));
#258 = CARTESIAN_POINT('',(-0.285719305526,-15.40426585933));
#259 = CARTESIAN_POINT('',(-0.358355437315,-15.42224025564));
#260 = CARTESIAN_POINT('',(-0.431991792776,-15.44409857775));
#261 = CARTESIAN_POINT('',(-0.506912556858,-15.46930473413));
#262 = CARTESIAN_POINT('',(-0.654874661336,-15.5230785114));
#263 = CARTESIAN_POINT('',(-0.727940266859,-15.55139482195));
#264 = CARTESIAN_POINT('',(-0.802811552799,-15.5814512326));
#265 = CARTESIAN_POINT('',(-0.879672085886,-15.61243524102));
#266 = CARTESIAN_POINT('',(-0.95873055987,-15.64332134644));
#267 = CARTESIAN_POINT('',(-1.040226508728,-15.67285823383));
#268 = CARTESIAN_POINT('',(-1.124444491295,-15.69959379466));
#269 = CARTESIAN_POINT('',(-1.281382714331,-15.73982038317));
#270 = CARTESIAN_POINT('',(-1.353161248144,-15.75494420217));
#271 = CARTESIAN_POINT('',(-1.42638301453,-15.76629937438));
#272 = CARTESIAN_POINT('',(-1.50046654624,-15.77303729124));
#273 = CARTESIAN_POINT('',(-1.574902033558,-15.77467719787));
#274 = CARTESIAN_POINT('',(-1.649197838852,-15.77118587175));
#275 = CARTESIAN_POINT('',(-1.722830154195,-15.76296648161));
#276 = CARTESIAN_POINT('',(-1.875154620602,-15.73726561831));
#277 = CARTESIAN_POINT('',(-1.952903295361,-15.71901420369));
#278 = CARTESIAN_POINT('',(-2.02860484792,-15.69698023976));
#279 = CARTESIAN_POINT('',(-2.102365342958,-15.67222610574));
#280 = CARTESIAN_POINT('',(-2.174245672556,-15.64580931263));
#281 = CARTESIAN_POINT('',(-2.244267982177,-15.61871308246));
#282 = CARTESIAN_POINT('',(-2.312416738302,-15.59179689758));
#283 = CARTESIAN_POINT('',(-2.45678325068,-15.53504707526));
#284 = CARTESIAN_POINT('',(-2.532823334357,-15.50533302602));
#285 = CARTESIAN_POINT('',(-2.60710233983,-15.47761732978));
#286 = CARTESIAN_POINT('',(-2.679923952905,-15.45265426526));
#287 = CARTESIAN_POINT('',(-2.751565833774,-15.43100446042));
#288 = CARTESIAN_POINT('',(-2.822293879518,-15.41307310747));
#289 = CARTESIAN_POINT('',(-2.892372809464,-15.39914186487));
#290 = CARTESIAN_POINT('',(-3.040317037939,-15.37845221076));
#291 = CARTESIAN_POINT('',(-3.11800192559,-15.37279361657));
#292 = CARTESIAN_POINT('',(-3.195463809395,-15.37266416449));
#293 = CARTESIAN_POINT('',(-3.273015829026,-15.37813485181));
#294 = CARTESIAN_POINT('',(-3.350961751485,-15.38911487902));
#295 = CARTESIAN_POINT('',(-3.429611203715,-15.4053451671));
#296 = CARTESIAN_POINT('',(-3.50929657714,-15.42637268522));
#297 = CARTESIAN_POINT('',(-3.70857452534,-15.48813274207));
#298 = CARTESIAN_POINT('',(-3.833371969467,-15.53460173379));
#299 = CARTESIAN_POINT('',(-3.964041881944,-15.58901070423));
#300 = CARTESIAN_POINT('',(-4.100379087194,-15.64708512268));
#301 = CARTESIAN_POINT('',(-4.242535592583,-15.70202598008));
#302 = CARTESIAN_POINT('',(-4.391103175368,-15.74572694872));
#303 = CARTESIAN_POINT('',(-4.547038376712,-15.77));
#304 = CARTESIAN_POINT('',(-4.816788325225,-15.77));
#305 = CARTESIAN_POINT('',(-4.918906096914,-15.76032384111));
#306 = CARTESIAN_POINT('',(-5.018745317808,-15.74171312624));
#307 = CARTESIAN_POINT('',(-5.116196193464,-15.71574654763));
#308 = CARTESIAN_POINT('',(-5.211041670192,-15.68461475076));
#309 = CARTESIAN_POINT('',(-5.302927783644,-15.65074662047));
#310 = CARTESIAN_POINT('',(-5.391305055616,-15.61641013806));
#311 = CARTESIAN_POINT('',(-5.585838446229,-15.54002652459));
#312 = CARTESIAN_POINT('',(-5.691969498279,-15.49772387022));
#313 = CARTESIAN_POINT('',(-5.79472270698,-15.45942662435));
#314 = CARTESIAN_POINT('',(-5.894875225341,-15.42713930896));
#315 = CARTESIAN_POINT('',(-5.993123152554,-15.40214214301));
#316 = CARTESIAN_POINT('',(-6.090133439353,-15.38519755569));
#317 = CARTESIAN_POINT('',(-6.186575603405,-15.37669990602));
#318 = CARTESIAN_POINT('',(-6.28318530718,-15.37669990602));
#319 = ( GEOMETRIC_REPRESENTATION_CONTEXT(2) 
PARAMETRIC_REPRESENTATION_CONTEXT() REPRESENTATION_CONTEXT('2D SPACE',''
  ) );
#320 = ADVANCED_FACE('',(#321,#324),#43,.F.);
#321 = FACE_BOUND('',#322,.F.);
#322 = EDGE_LOOP('',(#323));
#323 = ORIENTED_EDGE('',*,*,#21,.T.);
#324 = FACE_BOUND('',#325,.F.);
#325 = EDGE_LOOP('',(#326));
#326 = ORIENTED_EDGE('',*,*,#327,.T.);
#327 = EDGE_CURVE('',#328,#328,#330,.T.);
#328 = VERTEX_POINT('',#329);
#329 = CARTESIAN_POINT('',(14.33,0.,0.));
#330 = SURFACE_CURVE('',#331,(#336,#347),.PCURVE_S1.);
#331 = CIRCLE('',#332,14.33);
#332 = AXIS2_PLACEMENT_3D('',#333,#334,#335);
#333 = CARTESIAN_POINT('',(0.,0.,0.));
#334 = DIRECTION('',(0.,0.,-1.));
#335 = DIRECTION('',(1.,0.,0.));
#336 = PCURVE('',#43,#337);
#337 = DEFINITIONAL_REPRESENTATION('',(#338),#346);
#338 = ( BOUNDED_CURVE() B_SPLINE_CURVE(2,(#339,#340,#341,#342,#343,#344
,#345),.UNSPECIFIED.,.T.,.F.) B_SPLINE_CURVE_WITH_KNOTS((1,2,2,2,2,1),(
    -2.094395102393,0.,2.094395102393,4.188790204786,6.28318530718,
8.377580409573),.UNSPECIFIED.) CURVE() GEOMETRIC_REPRESENTATION_ITEM() 
RATIONAL_B_SPLINE_CURVE((1.,0.5,1.,0.5,1.,0.5,1.)) REPRESENTATION_ITEM(
  '') );
#339 = CARTESIAN_POINT('',(14.33,-7.436277735431E-16));
#340 = CARTESIAN_POINT('',(14.33,-24.82028807246));
#341 = CARTESIAN_POINT('',(-7.165,-12.41014403623));
#342 = CARTESIAN_POINT('',(-28.66,-4.253465499899E-15));
#343 = CARTESIAN_POINT('',(-7.165,12.410144036231));
#344 = CARTESIAN_POINT('',(14.33,24.820288072462));
#345 = CARTESIAN_POINT('',(14.33,-7.436277735431E-16));
#346 = ( GEOMETRIC_REPRESENTATION_CONTEXT(2) 
PARAMETRIC_REPRESENTATION_CONTEXT() REPRESENTATION_CONTEXT('2D SPACE',''
  ) );
#347 = PCURVE('',#348,#353);
#348 = CYLINDRICAL_SURFACE('',#349,14.33);
#349 = AXIS2_PLACEMENT_3D('',#350,#351,#352);
#350 = CARTESIAN_POINT('',(0.,0.,-0.1));
#351 = DIRECTION('',(-0.,-0.,-1.));
#352 = DIRECTION('',(1.,0.,0.));
#353 = DEFINITIONAL_REPRESENTATION('',(#354),#358);
#354 = LINE('',#355,#356);
#355 = CARTESIAN_POINT('',(-6.28318530718,-0.1));
#356 = VECTOR('',#357,1.);
#357 = DIRECTION('',(1.,-0.));
#358 = ( GEOMETRIC_REPRESENTATION_CONTEXT(2) 
PARAMETRIC_REPRESENTATION_CONTEXT() REPRESENTATION_CONTEXT('2D SPACE',''
  ) );
#359 = ADVANCED_FACE('',(#360),#93,.T.);
#360 = FACE_BOUND('',#361,.T.);
#361 = EDGE_LOOP('',(#362,#363,#383,#409));
#362 = ORIENTED_EDGE('',*,*,#78,.T.);
#363 = ORIENTED_EDGE('',*,*,#364,.T.);
#364 = EDGE_CURVE('',#56,#365,#367,.T.);
#365 = VERTEX_POINT('',#366);
#366 = CARTESIAN_POINT('',(3.5,0.,90.));
#367 = SEAM_CURVE('',#368,(#371,#377),.PCURVE_S1.);
#368 = B_SPLINE_CURVE_WITH_KNOTS('',1,(#369,#370),.UNSPECIFIED.,.F.,.F.,
  (2,2),(0.,1.),.PIECEWISE_BEZIER_KNOTS.);
#369 = CARTESIAN_POINT('',(15.77,0.,72.));
#370 = CARTESIAN_POINT('',(3.5,0.,90.));
#371 = PCURVE('',#93,#372);
#372 = DEFINITIONAL_REPRESENTATION('',(#373),#376);
#373 = B_SPLINE_CURVE_WITH_KNOTS('',1,(#374,#375),.UNSPECIFIED.,.F.,.F.,
  (2,2),(0.,1.),.PIECEWISE_BEZIER_KNOTS.);
#374 = CARTESIAN_POINT('',(-6.28318530718,0.));
#375 = CARTESIAN_POINT('',(-6.28318530718,-18.));
#376 = ( GEOMETRIC_REPRESENTATION_CONTEXT(2) 
PARAMETRIC_REPRESENTATION_CONTEXT() REPRESENTATION_CONTEXT('2D SPACE',''
  ) );
#377 = PCURVE('',#93,#378);
#378 = DEFINITIONAL_REPRESENTATION('',(#379),#382);
#379 = B_SPLINE_CURVE_WITH_KNOTS('',1,(#380,#381),.UNSPECIFIED.,.F.,.F.,
  (2,2),(0.,1.),.PIECEWISE_BEZIER_KNOTS.);
#380 = CARTESIAN_POINT('',(0.,0.));
#381 = CARTESIAN_POINT('',(0.,-18.));
#382 = ( GEOMETRIC_REPRESENTATION_CONTEXT(2) 
PARAMETRIC_REPRESENTATION_CONTEXT() REPRESENTATION_CONTEXT('2D SPACE',''
  ) );
#383 = ORIENTED_EDGE('',*,*,#384,.F.);
#384 = EDGE_CURVE('',#365,#365,#385,.T.);
#385 = SURFACE_CURVE('',#386,(#391,#398),.PCURVE_S1.);
#386 = CIRCLE('',#387,3.5);
#387 = AXIS2_PLACEMENT_3D('',#388,#389,#390);
#388 = CARTESIAN_POINT('',(0.,0.,90.));
#389 = DIRECTION('',(0.,0.,1.));
#390 = DIRECTION('',(1.,0.,0.));
#391 = PCURVE('',#93,#392);
#392 = DEFINITIONAL_REPRESENTATION('',(#393),#397);
#393 = LINE('',#394,#395);
#394 = CARTESIAN_POINT('',(-0.,-18.));
#395 = VECTOR('',#396,1.);
#396 = DIRECTION('',(-1.,-0.));
#397 = ( GEOMETRIC_REPRESENTATION_CONTEXT(2) 
PARAMETRIC_REPRESENTATION_CONTEXT() REPRESENTATION_CONTEXT('2D SPACE',''
  ) );
#398 = PCURVE('',#399,#404);
#399 = CYLINDRICAL_SURFACE('',#400,3.5);
#400 = AXIS2_PLACEMENT_3D('',#401,#402,#403);
#401 = CARTESIAN_POINT('',(0.,0.,90.));
#402 = DIRECTION('',(-0.,-0.,-1.));
#403 = DIRECTION('',(1.,0.,0.));
#404 = DEFINITIONAL_REPRESENTATION('',(#405),#408);
#405 = B_SPLINE_CURVE_WITH_KNOTS('',1,(#406,#407),.UNSPECIFIED.,.F.,.F.,
  (2,2),(0.,6.28318530718),.PIECEWISE_BEZIER_KNOTS.);
#406 = CARTESIAN_POINT('',(0.,0.));
#407 = CARTESIAN_POINT('',(-6.28318530718,0.));
#408 = ( GEOMETRIC_REPRESENTATION_CONTEXT(2) 
PARAMETRIC_REPRESENTATION_CONTEXT() REPRESENTATION_CONTEXT('2D SPACE',''
  ) );
#409 = ORIENTED_EDGE('',*,*,#364,.F.);
#410 = ADVANCED_FACE('',(#411),#247,.T.);
#411 = FACE_BOUND('',#412,.F.);
#412 = EDGE_LOOP('',(#413,#414,#437,#464));
#413 = ORIENTED_EDGE('',*,*,#107,.F.);
#414 = ORIENTED_EDGE('',*,*,#415,.T.);
#415 = EDGE_CURVE('',#108,#416,#418,.T.);
#416 = VERTEX_POINT('',#417);
#417 = CARTESIAN_POINT('',(3.5,-37.77,50.4));
#418 = SEAM_CURVE('',#419,(#423,#430),.PCURVE_S1.);
#419 = LINE('',#420,#421);
#420 = CARTESIAN_POINT('',(3.5,0.,50.4));
#421 = VECTOR('',#422,1.);
#422 = DIRECTION('',(0.,-1.,0.));
#423 = PCURVE('',#247,#424);
#424 = DEFINITIONAL_REPRESENTATION('',(#425),#429);
#425 = LINE('',#426,#427);
#426 = CARTESIAN_POINT('',(-6.28318530718,0.));
#427 = VECTOR('',#428,1.);
#428 = DIRECTION('',(-0.,-1.));
#429 = ( GEOMETRIC_REPRESENTATION_CONTEXT(2) 
PARAMETRIC_REPRESENTATION_CONTEXT() REPRESENTATION_CONTEXT('2D SPACE',''
  ) );
#430 = PCURVE('',#247,#431);
#431 = DEFINITIONAL_REPRESENTATION('',(#432),#436);
#432 = LINE('',#433,#434);
#433 = CARTESIAN_POINT('',(-0.,0.));
#434 = VECTOR('',#435,1.);
#435 = DIRECTION('',(-0.,-1.));
#436 = ( GEOMETRIC_REPRESENTATION_CONTEXT(2) 
PARAMETRIC_REPRESENTATION_CONTEXT() REPRESENTATION_CONTEXT('2D SPACE',''
  ) );
#437 = ORIENTED_EDGE('',*,*,#438,.T.);
#438 = EDGE_CURVE('',#416,#416,#439,.T.);
#439 = SURFACE_CURVE('',#440,(#445,#452),.PCURVE_S1.);
#440 = CIRCLE('',#441,3.5);
#441 = AXIS2_PLACEMENT_3D('',#442,#443,#444);
#442 = CARTESIAN_POINT('',(0.,-37.77,50.4));
#443 = DIRECTION('',(0.,-1.,0.));
#444 = DIRECTION('',(1.,0.,0.));
#445 = PCURVE('',#247,#446);
#446 = DEFINITIONAL_REPRESENTATION('',(#447),#451);
#447 = LINE('',#448,#449);
#448 = CARTESIAN_POINT('',(-0.,-37.77));
#449 = VECTOR('',#450,1.);
#450 = DIRECTION('',(-1.,0.));
#451 = ( GEOMETRIC_REPRESENTATION_CONTEXT(2) 
PARAMETRIC_REPRESENTATION_CONTEXT() REPRESENTATION_CONTEXT('2D SPACE',''
  ) );
#452 = PCURVE('',#453,#458);
#453 = PLANE('',#454);
#454 = AXIS2_PLACEMENT_3D('',#455,#456,#457);
#455 = CARTESIAN_POINT('',(9.767429518139E-17,-37.77,50.4));
#456 = DIRECTION('',(-0.,-1.,-0.));
#457 = DIRECTION('',(0.,0.,-1.));
#458 = DEFINITIONAL_REPRESENTATION('',(#459),#463);
#459 = CIRCLE('',#460,3.5);
#460 = AXIS2_PLACEMENT_2D('',#461,#462);
#461 = CARTESIAN_POINT('',(0.,-9.767429518139E-17));
#462 = DIRECTION('',(0.,1.));
#463 = ( GEOMETRIC_REPRESENTATION_CONTEXT(2) 
PARAMETRIC_REPRESENTATION_CONTEXT() REPRESENTATION_CONTEXT('2D SPACE',''
  ) );
#464 = ORIENTED_EDGE('',*,*,#415,.F.);
#465 = ADVANCED_FACE('',(#466,#524),#348,.F.);
#466 = FACE_BOUND('',#467,.T.);
#467 = EDGE_LOOP('',(#468,#491,#492,#493));
#468 = ORIENTED_EDGE('',*,*,#469,.F.);
#469 = EDGE_CURVE('',#328,#470,#472,.T.);
#470 = VERTEX_POINT('',#471);
#471 = CARTESIAN_POINT('',(14.33,0.,72.));
#472 = SEAM_CURVE('',#473,(#477,#484),.PCURVE_S1.);
#473 = LINE('',#474,#475);
#474 = CARTESIAN_POINT('',(14.33,0.,0.));
#475 = VECTOR('',#476,1.);
#476 = DIRECTION('',(0.,0.,1.));
#477 = PCURVE('',#348,#478);
#478 = DEFINITIONAL_REPRESENTATION('',(#479),#483);
#479 = LINE('',#480,#481);
#480 = CARTESIAN_POINT('',(-6.28318530718,-0.1));
#481 = VECTOR('',#482,1.);
#482 = DIRECTION('',(-0.,-1.));
#483 = ( GEOMETRIC_REPRESENTATION_CONTEXT(2) 
PARAMETRIC_REPRESENTATION_CONTEXT() REPRESENTATION_CONTEXT('2D SPACE',''
  ) );
#484 = PCURVE('',#348,#485);
#485 = DEFINITIONAL_REPRESENTATION('',(#486),#490);
#486 = LINE('',#487,#488);
#487 = CARTESIAN_POINT('',(-0.,-0.1));
#488 = VECTOR('',#489,1.);
#489 = DIRECTION('',(-0.,-1.));
#490 = ( GEOMETRIC_REPRESENTATION_CONTEXT(2) 
PARAMETRIC_REPRESENTATION_CONTEXT() REPRESENTATION_CONTEXT('2D SPACE',''
  ) );
#491 = ORIENTED_EDGE('',*,*,#327,.T.);
#492 = ORIENTED_EDGE('',*,*,#469,.T.);
#493 = ORIENTED_EDGE('',*,*,#494,.F.);
#494 = EDGE_CURVE('',#470,#470,#495,.T.);
#495 = SURFACE_CURVE('',#496,(#501,#508),.PCURVE_S1.);
#496 = CIRCLE('',#497,14.33);
#497 = AXIS2_PLACEMENT_3D('',#498,#499,#500);
#498 = CARTESIAN_POINT('',(0.,0.,72.));
#499 = DIRECTION('',(0.,0.,-1.));
#500 = DIRECTION('',(1.,0.,0.));
#501 = PCURVE('',#348,#502);
#502 = DEFINITIONAL_REPRESENTATION('',(#503),#507);
#503 = LINE('',#504,#505);
#504 = CARTESIAN_POINT('',(-6.28318530718,-72.1));
#505 = VECTOR('',#506,1.);
#506 = DIRECTION('',(1.,-0.));
#507 = ( GEOMETRIC_REPRESENTATION_CONTEXT(2) 
PARAMETRIC_REPRESENTATION_CONTEXT() REPRESENTATION_CONTEXT('2D SPACE',''
  ) );
#508 = PCURVE('',#509,#514);
#509 = PLANE('',#510);
#510 = AXIS2_PLACEMENT_3D('',#511,#512,#513);
#511 = CARTESIAN_POINT('',(0.,0.,72.));
#512 = DIRECTION('',(0.,0.,1.));
#513 = DIRECTION('',(1.,0.,0.));
#514 = DEFINITIONAL_REPRESENTATION('',(#515),#523);
#515 = ( BOUNDED_CURVE() B_SPLINE_CURVE(2,(#516,#517,#518,#519,#520,#521
,#522),.UNSPECIFIED.,.T.,.F.) B_SPLINE_CURVE_WITH_KNOTS((1,2,2,2,2,1),(
    -2.094395102393,0.,2.094395102393,4.188790204786,6.28318530718,
8.377580409573),.UNSPECIFIED.) CURVE() GEOMETRIC_REPRESENTATION_ITEM() 
RATIONAL_B_SPLINE_CURVE((1.,0.5,1.,0.5,1.,0.5,1.)) REPRESENTATION_ITEM(
  '') );
#516 = CARTESIAN_POINT('',(14.33,0.));
#517 = CARTESIAN_POINT('',(14.33,-24.82028807246));
#518 = CARTESIAN_POINT('',(-7.165,-12.41014403623));
#519 = CARTESIAN_POINT('',(-28.66,-3.509837726356E-15));
#520 = CARTESIAN_POINT('',(-7.165,12.410144036231));
#521 = CARTESIAN_POINT('',(14.33,24.820288072462));
#522 = CARTESIAN_POINT('',(14.33,0.));
#523 = ( GEOMETRIC_REPRESENTATION_CONTEXT(2) 
PARAMETRIC_REPRESENTATION_CONTEXT() REPRESENTATION_CONTEXT('2D SPACE',''
  ) );
#524 = FACE_BOUND('',#525,.T.);
#525 = EDGE_LOOP('',(#526));
#526 = ORIENTED_EDGE('',*,*,#527,.T.);
#527 = EDGE_CURVE('',#528,#528,#530,.T.);
#528 = VERTEX_POINT('',#529);
#529 = CARTESIAN_POINT('',(3.5,-13.89600302245,50.4));
#530 = SURFACE_CURVE('',#531,(#597,#666),.PCURVE_S1.);
#531 = B_SPLINE_CURVE_WITH_KNOTS('',8,(#532,#533,#534,#535,#536,#537,
    #538,#539,#540,#541,#542,#543,#544,#545,#546,#547,#548,#549,#550,
    #551,#552,#553,#554,#555,#556,#557,#558,#559,#560,#561,#562,#563,
    #564,#565,#566,#567,#568,#569,#570,#571,#572,#573,#574,#575,#576,
    #577,#578,#579,#580,#581,#582,#583,#584,#585,#586,#587,#588,#589,
    #590,#591,#592,#593,#594,#595,#596),.UNSPECIFIED.,.T.,.F.,(9,7,7,7,7
    ,7,7,7,7,9),(0.,0.105535642718,0.204180327495,0.282751982317,
    0.369650541138,0.47214056071,0.587104285491,0.754880254506,
    0.860799325588,1.),.UNSPECIFIED.);
#532 = CARTESIAN_POINT('',(3.5,-13.89600302245,50.4));
#533 = CARTESIAN_POINT('',(3.5,-13.89600302245,50.649411775373));
#534 = CARTESIAN_POINT('',(3.479688009304,-13.90111915889,
    50.898689114226));
#535 = CARTESIAN_POINT('',(3.439100937289,-13.91134150731,
    51.146817459311));
#536 = CARTESIAN_POINT('',(3.378083111744,-13.9265335531,51.392743316945
    ));
#537 = CARTESIAN_POINT('',(3.296305995912,-13.94642536925,
    51.635314646446));
#538 = CARTESIAN_POINT('',(3.193289754078,-13.97059533077,
    51.873202978228));
#539 = CARTESIAN_POINT('',(3.068426665691,-13.99844036599,
    52.104807260576));
#540 = CARTESIAN_POINT('',(2.783211928772,-14.05782493131,
    52.536889118008));
#541 = CARTESIAN_POINT('',(2.625281709855,-14.08909369561,
    52.739060427214));
#542 = CARTESIAN_POINT('',(2.446588719025,-14.12225982355,
    52.932693919214));
#543 = CARTESIAN_POINT('',(2.246589876668,-14.15642805767,
    53.115477948006));
#544 = CARTESIAN_POINT('',(2.024885301078,-14.19047214842,
    53.284711463385));
#545 = CARTESIAN_POINT('',(1.78130423203,-14.22301944613,53.437246856847
    ));
#546 = CARTESIAN_POINT('',(1.516034431992,-14.25247595357,
    53.569400928348));
#547 = CARTESIAN_POINT('',(1.001832249383,-14.29676860353,
    53.762384235339));
#548 = CARTESIAN_POINT('',(0.759874933573,-14.3134185073,53.832512222599
    ));
#549 = CARTESIAN_POINT('',(0.507248557528,-14.32592212825,
    53.883683950415));
#550 = CARTESIAN_POINT('',(0.247700034684,-14.33334261354,
    53.913542661963));
#551 = CARTESIAN_POINT('',(-1.474821735473E-02,-14.3351498726,
    53.920862815408));
#552 = CARTESIAN_POINT('',(-0.275970711775,-14.33130715726,
    53.905539525034));
#553 = CARTESIAN_POINT('',(-0.53192097389,-14.32225894968,
    53.868601530272));
#554 = CARTESIAN_POINT('',(-1.051891892006,-14.29395714383,
    53.74992156134));
#555 = CARTESIAN_POINT('',(-1.311598379503,-14.27384788518,
    53.664369983803));
#556 = CARTESIAN_POINT('',(-1.556428975493,-14.24957399274,
    53.558517745293));
#557 = CARTESIAN_POINT('',(-1.785272329375,-14.22230375343,
    53.435141040811));
#558 = CARTESIAN_POINT('',(-1.997357497405,-14.19319713524,
    53.296910295121));
#559 = CARTESIAN_POINT('',(-2.19221420994,-14.16333196563,
    53.146419002277));
#560 = CARTESIAN_POINT('',(-2.369655404323,-14.13365128351,
    52.986198584651));
#561 = CARTESIAN_POINT('',(-2.718638784031,-14.07105956815,
    52.62119058605));
#562 = CARTESIAN_POINT('',(-2.884818261284,-14.03827128525,
    52.412091878811));
#563 = CARTESIAN_POINT('',(-3.029059438173,-14.00766117574,
    52.193951919198));
#564 = CARTESIAN_POINT('',(-3.152103413005,-13.98006706609,
    51.96875575908));
#565 = CARTESIAN_POINT('',(-3.254625448369,-13.95611687386,
    51.738079770866));
#566 = CARTESIAN_POINT('',(-3.33717971739,-13.93626837768,
    51.503201934254));
#567 = CARTESIAN_POINT('',(-3.400156747269,-13.92084233347,
    51.265187371583));
#568 = CARTESIAN_POINT('',(-3.492656389971,-13.89794191268,
    50.755472328142));
#569 = CARTESIAN_POINT('',(-3.517118863501,-13.89167721625,
    50.483504046619));
#570 = CARTESIAN_POINT('',(-3.517478261471,-13.89153496331,
    50.210526671902));
#571 = CARTESIAN_POINT('',(-3.493826646033,-13.8975970161,
    49.937929944725));
#572 = CARTESIAN_POINT('',(-3.446032171668,-13.90975884209,
    49.667102346883));
#573 = CARTESIAN_POINT('',(-3.373754288391,-13.9277229441,49.39953632783
    ));
#574 = CARTESIAN_POINT('',(-3.276452837179,-13.9509738613,
    49.136947372894));
#575 = CARTESIAN_POINT('',(-2.973796885653,-14.01924846431,
    48.50847581375));
#576 = CARTESIAN_POINT('',(-2.733936122028,-14.07058759237,
    48.139338231787));
#577 = CARTESIAN_POINT('',(-2.428964929402,-14.130611515,47.788734373987
    ));
#578 = CARTESIAN_POINT('',(-2.057463101037,-14.19459868791,
    47.472372153519));
#579 = CARTESIAN_POINT('',(-1.621176347629,-14.25507953072,
    47.206775730301));
#580 = CARTESIAN_POINT('',(-1.125482178918,-14.30321630478,
    47.009654501195));
#581 = CARTESIAN_POINT('',(-0.579499698503,-14.33,46.9));
#582 = CARTESIAN_POINT('',(0.365845419451,-14.33,46.9));
#583 = CARTESIAN_POINT('',(0.723484344407,-14.31932535146,
    46.943703312617));
#584 = CARTESIAN_POINT('',(1.066901125309,-14.29881599772,
    47.027681602114));
#585 = CARTESIAN_POINT('',(1.390816572518,-14.27021698165,
    47.147635814085));
#586 = CARTESIAN_POINT('',(1.690784070928,-14.2359308575,47.298388738657
    ));
#587 = CARTESIAN_POINT('',(1.963354200639,-14.1986201809,47.473869578946
    ));
#588 = CARTESIAN_POINT('',(2.20627803302,-14.16078006233,47.667103355384
    ));
#589 = CARTESIAN_POINT('',(2.697913219821,-14.07659047296,
    48.137154723384));
#590 = CARTESIAN_POINT('',(2.932525465725,-14.02992212475,
    48.428871549985));
#591 = CARTESIAN_POINT('',(3.124458683805,-13.98761218939,
    48.737968122878));
#592 = CARTESIAN_POINT('',(3.275727189709,-13.95189090761,
    49.059243041789));
#593 = CARTESIAN_POINT('',(3.388037305106,-13.92420371966,
    49.388829771392));
#594 = CARTESIAN_POINT('',(3.462598055223,-13.90542328759,
    49.723741167965));
#595 = CARTESIAN_POINT('',(3.5,-13.89600302245,50.06155839229));
#596 = CARTESIAN_POINT('',(3.5,-13.89600302245,50.4));
#597 = PCURVE('',#348,#598);
#598 = DEFINITIONAL_REPRESENTATION('',(#599),#665);
#599 = B_SPLINE_CURVE_WITH_KNOTS('',8,(#600,#601,#602,#603,#604,#605,
    #606,#607,#608,#609,#610,#611,#612,#613,#614,#615,#616,#617,#618,
    #619,#620,#621,#622,#623,#624,#625,#626,#627,#628,#629,#630,#631,
    #632,#633,#634,#635,#636,#637,#638,#639,#640,#641,#642,#643,#644,
    #645,#646,#647,#648,#649,#650,#651,#652,#653,#654,#655,#656,#657,
    #658,#659,#660,#661,#662,#663,#664),.UNSPECIFIED.,.T.,.F.,(9,7,7,7,7
    ,7,7,7,7,9),(0.,0.105535642718,0.204180327495,0.282751982317,
    0.369650541138,0.47214056071,0.587104285491,0.754880254506,
    0.860799325588,1.),.UNSPECIFIED.);
#600 = CARTESIAN_POINT('',(-4.959127795987,-50.5));
#601 = CARTESIAN_POINT('',(-4.959127795987,-50.74941177537));
#602 = CARTESIAN_POINT('',(-4.95766607304,-50.99868911422));
#603 = CARTESIAN_POINT('',(-4.95474532063,-51.24681745931));
#604 = CARTESIAN_POINT('',(-4.950357290275,-51.49274331694));
#605 = CARTESIAN_POINT('',(-4.944484360458,-51.73531464644));
#606 = CARTESIAN_POINT('',(-4.937100886599,-51.97320297822));
#607 = CARTESIAN_POINT('',(-4.928174332071,-52.20480726057));
#608 = CARTESIAN_POINT('',(-4.907844159034,-52.636889118));
#609 = CARTESIAN_POINT('',(-4.896609808758,-52.83906042721));
#610 = CARTESIAN_POINT('',(-4.883928565128,-53.03269391921));
#611 = CARTESIAN_POINT('',(-4.869772803987,-53.215477948));
#612 = CARTESIAN_POINT('',(-4.854125188907,-53.38471146338));
#613 = CARTESIAN_POINT('',(-4.836982701801,-53.53724685684));
#614 = CARTESIAN_POINT('',(-4.818363090417,-53.66940092834));
#615 = CARTESIAN_POINT('',(-4.78234729766,-53.86238423533));
#616 = CARTESIAN_POINT('',(-4.765425136771,-53.93251222259));
#617 = CARTESIAN_POINT('',(-4.747780074259,-53.98368395041));
#618 = CARTESIAN_POINT('',(-4.729668393364,-54.01354266196));
#619 = CARTESIAN_POINT('',(-4.711361769154,-54.0208628154));
#620 = CARTESIAN_POINT('',(-4.693137431746,-54.00553952503));
#621 = CARTESIAN_POINT('',(-4.675268293749,-53.96860153027));
#622 = CARTESIAN_POINT('',(-4.638929104887,-53.84992156134));
#623 = CARTESIAN_POINT('',(-4.620756372939,-53.7643699838));
#624 = CARTESIAN_POINT('',(-4.603593734704,-53.65851774529));
#625 = CARTESIAN_POINT('',(-4.587516897044,-53.53514104081));
#626 = CARTESIAN_POINT('',(-4.572582048708,-53.39691029512));
#627 = CARTESIAN_POINT('',(-4.558827592903,-53.24641900227));
#628 = CARTESIAN_POINT('',(-4.546273948777,-53.08619858465));
#629 = CARTESIAN_POINT('',(-4.521532008649,-52.72119058605));
#630 = CARTESIAN_POINT('',(-4.509713590091,-52.51209187881));
#631 = CARTESIAN_POINT('',(-4.499425269957,-52.29395191919));
#632 = CARTESIAN_POINT('',(-4.490626343847,-52.06875575908));
#633 = CARTESIAN_POINT('',(-4.483279666698,-51.83807977086));
#634 = CARTESIAN_POINT('',(-4.47735466312,-51.60320193425));
#635 = CARTESIAN_POINT('',(-4.472829980517,-51.36518737158));
#636 = CARTESIAN_POINT('',(-4.466180137435,-50.85547232814));
#637 = CARTESIAN_POINT('',(-4.464418027128,-50.58350404661));
#638 = CARTESIAN_POINT('',(-4.46439122138,-50.3105266719));
#639 = CARTESIAN_POINT('',(-4.46609508851,-50.03792994472));
#640 = CARTESIAN_POINT('',(-4.469536695991,-49.76710234688));
#641 = CARTESIAN_POINT('',(-4.474733756374,-49.49953632783));
#642 = CARTESIAN_POINT('',(-4.481714421015,-49.23694737289));
#643 = CARTESIAN_POINT('',(-4.503365590247,-48.60847581375));
#644 = CARTESIAN_POINT('',(-4.52048201096,-48.23933823178));
#645 = CARTESIAN_POINT('',(-4.542167428167,-47.88873437398));
#646 = CARTESIAN_POINT('',(-4.568457736363,-47.57237215352));
#647 = CARTESIAN_POINT('',(-4.599156506132,-47.3067757303));
#648 = CARTESIAN_POINT('',(-4.63384871313,-47.10965450119));
#649 = CARTESIAN_POINT('',(-4.671949364299,-47.));
#650 = CARTESIAN_POINT('',(-4.737919016634,-47.));
#651 = CARTESIAN_POINT('',(-4.762876394372,-47.04370331261));
#652 = CARTESIAN_POINT('',(-4.786866546286,-47.12768160211));
#653 = CARTESIAN_POINT('',(-4.80954200685,-47.24763581408));
#654 = CARTESIAN_POINT('',(-4.830599899963,-47.39838873865));
#655 = CARTESIAN_POINT('',(-4.849792665268,-47.57386957894));
#656 = CARTESIAN_POINT('',(-4.866947247507,-47.76710335538));
#657 = CARTESIAN_POINT('',(-4.901754755085,-48.23715472338));
#658 = CARTESIAN_POINT('',(-4.918441649936,-48.52887154998));
#659 = CARTESIAN_POINT('',(-4.932153399829,-48.83796812287));
#660 = CARTESIAN_POINT('',(-4.942998670401,-49.15924304178));
#661 = CARTESIAN_POINT('',(-4.951070586765,-49.48882977139));
#662 = CARTESIAN_POINT('',(-4.95643624151,-49.82374116796));
#663 = CARTESIAN_POINT('',(-4.959127795987,-50.16155839229));
#664 = CARTESIAN_POINT('',(-4.959127795987,-50.5));
#665 = ( GEOMETRIC_REPRESENTATION_CONTEXT(2) 
PARAMETRIC_REPRESENTATION_CONTEXT() REPRESENTATION_CONTEXT('2D SPACE',''
  ) );
#666 = PCURVE('',#667,#672);
#667 = CYLINDRICAL_SURFACE('',#668,3.5);
#668 = AXIS2_PLACEMENT_3D('',#669,#670,#671);
#669 = CARTESIAN_POINT('',(0.,0.,50.4));
#670 = DIRECTION('',(-0.,1.,-0.));
#671 = DIRECTION('',(1.,0.,0.));
#672 = DEFINITIONAL_REPRESENTATION('',(#673),#739);
#673 = B_SPLINE_CURVE_WITH_KNOTS('',8,(#674,#675,#676,#677,#678,#679,
    #680,#681,#682,#683,#684,#685,#686,#687,#688,#689,#690,#691,#692,
    #693,#694,#695,#696,#697,#698,#699,#700,#701,#702,#703,#704,#705,
    #706,#707,#708,#709,#710,#711,#712,#713,#714,#715,#716,#717,#718,
    #719,#720,#721,#722,#723,#724,#725,#726,#727,#728,#729,#730,#731,
    #732,#733,#734,#735,#736,#737,#738),.UNSPECIFIED.,.F.,.F.,(9,7,7,7,7
    ,7,7,7,7,9),(0.,0.105535642718,0.204180327495,0.282751982317,
    0.369650541138,0.47214056071,0.587104285491,0.754880254506,
    0.860799325588,1.),.UNSPECIFIED.);
#674 = CARTESIAN_POINT('',(0.,-13.89600302245));
#675 = CARTESIAN_POINT('',(-7.126050724939E-02,-13.89600302245));
#676 = CARTESIAN_POINT('',(-0.14248296065,-13.90111915889));
#677 = CARTESIAN_POINT('',(-0.213927286023,-13.91134150731));
#678 = CARTESIAN_POINT('',(-0.285844073499,-13.9265335531));
#679 = CARTESIAN_POINT('',(-0.358482699886,-13.94642536925));
#680 = CARTESIAN_POINT('',(-0.432101696938,-13.97059533077));
#681 = CARTESIAN_POINT('',(-0.506981365521,-13.99844036599));
#682 = CARTESIAN_POINT('',(-0.654903622454,-14.05782493131));
#683 = CARTESIAN_POINT('',(-0.727969259611,-14.08909369561));
#684 = CARTESIAN_POINT('',(-0.802823712778,-14.12225982355));
#685 = CARTESIAN_POINT('',(-0.879660776346,-14.15642805767));
#686 = CARTESIAN_POINT('',(-0.95869817705,-14.19047214842));
#687 = CARTESIAN_POINT('',(-1.040183639656,-14.22301944613));
#688 = CARTESIAN_POINT('',(-1.124409564476,-14.25247595357));
#689 = CARTESIAN_POINT('',(-1.281330561465,-14.29676860353));
#690 = CARTESIAN_POINT('',(-1.353093218226,-14.3134185073));
#691 = CARTESIAN_POINT('',(-1.426320635369,-14.32592212825));
#692 = CARTESIAN_POINT('',(-1.500421499118,-14.33334261354));
#693 = CARTESIAN_POINT('',(-1.574878885038,-14.3351498726));
#694 = CARTESIAN_POINT('',(-1.649194809577,-14.33130715726));
#695 = CARTESIAN_POINT('',(-1.722838131332,-14.32225894968));
#696 = CARTESIAN_POINT('',(-1.875221828224,-14.29395714383));
#697 = CARTESIAN_POINT('',(-1.953002742481,-14.27384788518));
#698 = CARTESIAN_POINT('',(-2.028710404552,-14.24957399274));
#699 = CARTESIAN_POINT('',(-2.102458445867,-14.22230375343));
#700 = CARTESIAN_POINT('',(-2.174314739953,-14.19319713524));
#701 = CARTESIAN_POINT('',(-2.244308410473,-14.16333196563));
#702 = CARTESIAN_POINT('',(-2.312431376882,-14.13365128351));
#703 = CARTESIAN_POINT('',(-2.456715744162,-14.07105956815));
#704 = CARTESIAN_POINT('',(-2.532709332033,-14.03827128525));
#705 = CARTESIAN_POINT('',(-2.60696202999,-14.00766117574));
#706 = CARTESIAN_POINT('',(-2.679776808686,-13.98006706609));
#707 = CARTESIAN_POINT('',(-2.751430500705,-13.95611687386));
#708 = CARTESIAN_POINT('',(-2.822187936321,-13.93626837768));
#709 = CARTESIAN_POINT('',(-2.89231249511,-13.92084233347));
#710 = CARTESIAN_POINT('',(-3.040323969957,-13.89794191268));
#711 = CARTESIAN_POINT('',(-3.118028973249,-13.89167721625));
#712 = CARTESIAN_POINT('',(-3.195516164866,-13.89153496331));
#713 = CARTESIAN_POINT('',(-3.273091135644,-13.8975970161));
#714 = CARTESIAN_POINT('',(-3.351050425363,-13.90975884209));
#715 = CARTESIAN_POINT('',(-3.429696588533,-13.9277229441));
#716 = CARTESIAN_POINT('',(-3.509354886248,-13.9509738613));
#717 = CARTESIAN_POINT('',(-3.708655116266,-14.01924846431));
#718 = CARTESIAN_POINT('',(-3.833413962423,-14.07058759237));
#719 = CARTESIAN_POINT('',(-3.963988592391,-14.130611515));
#720 = CARTESIAN_POINT('',(-4.100216991062,-14.19459868791));
#721 = CARTESIAN_POINT('',(-4.242285245648,-14.25507953072));
#722 = CARTESIAN_POINT('',(-4.390821557228,-14.30321630478));
#723 = CARTESIAN_POINT('',(-4.546817637955,-14.33));
#724 = CARTESIAN_POINT('',(-4.816916243085,-14.33));
#725 = CARTESIAN_POINT('',(-4.919098705181,-14.31932535146));
#726 = CARTESIAN_POINT('',(-5.018958354288,-14.29881599772));
#727 = CARTESIAN_POINT('',(-5.116398366383,-14.27021698165));
#728 = CARTESIAN_POINT('',(-5.211211464043,-14.2359308575));
#729 = CARTESIAN_POINT('',(-5.303050819297,-14.1986201809));
#730 = CARTESIAN_POINT('',(-5.391371092201,-14.16078006233));
#731 = CARTESIAN_POINT('',(-5.585710044037,-14.07659047296));
#732 = CARTESIAN_POINT('',(-5.691759338675,-14.02992212475));
#733 = CARTESIAN_POINT('',(-5.794472505224,-13.98761218939));
#734 = CARTESIAN_POINT('',(-5.894622656879,-13.95189090761));
#735 = CARTESIAN_POINT('',(-5.992901112816,-13.92420371966));
#736 = CARTESIAN_POINT('',(-6.089968736947,-13.90542328759));
#737 = CARTESIAN_POINT('',(-6.186487704977,-13.89600302245));
#738 = CARTESIAN_POINT('',(-6.28318530718,-13.89600302245));
#739 = ( GEOMETRIC_REPRESENTATION_CONTEXT(2) 
PARAMETRIC_REPRESENTATION_CONTEXT() REPRESENTATION_CONTEXT('2D SPACE',''
  ) );
#740 = ADVANCED_FACE('',(#741),#399,.T.);
#741 = FACE_BOUND('',#742,.F.);
#742 = EDGE_LOOP('',(#743,#766,#793,#794));
#743 = ORIENTED_EDGE('',*,*,#744,.T.);
#744 = EDGE_CURVE('',#365,#745,#747,.T.);
#745 = VERTEX_POINT('',#746);
#746 = CARTESIAN_POINT('',(3.5,0.,100.));
#747 = SEAM_CURVE('',#748,(#752,#759),.PCURVE_S1.);
#748 = LINE('',#749,#750);
#749 = CARTESIAN_POINT('',(3.5,0.,90.));
#750 = VECTOR('',#751,1.);
#751 = DIRECTION('',(0.,0.,1.));
#752 = PCURVE('',#399,#753);
#753 = DEFINITIONAL_REPRESENTATION('',(#754),#758);
#754 = LINE('',#755,#756);
#755 = CARTESIAN_POINT('',(-0.,0.));
#756 = VECTOR('',#757,1.);
#757 = DIRECTION('',(-0.,-1.));
#758 = ( GEOMETRIC_REPRESENTATION_CONTEXT(2) 
PARAMETRIC_REPRESENTATION_CONTEXT() REPRESENTATION_CONTEXT('2D SPACE',''
  ) );
#759 = PCURVE('',#399,#760);
#760 = DEFINITIONAL_REPRESENTATION('',(#761),#765);
#761 = LINE('',#762,#763);
#762 = CARTESIAN_POINT('',(-6.28318530718,0.));
#763 = VECTOR('',#764,1.);
#764 = DIRECTION('',(-0.,-1.));
#765 = ( GEOMETRIC_REPRESENTATION_CONTEXT(2) 
PARAMETRIC_REPRESENTATION_CONTEXT() REPRESENTATION_CONTEXT('2D SPACE',''
  ) );
#766 = ORIENTED_EDGE('',*,*,#767,.T.);
#767 = EDGE_CURVE('',#745,#745,#768,.T.);
#768 = SURFACE_CURVE('',#769,(#774,#781),.PCURVE_S1.);
#769 = CIRCLE('',#770,3.5);
#770 = AXIS2_PLACEMENT_3D('',#771,#772,#773);
#771 = CARTESIAN_POINT('',(0.,0.,100.));
#772 = DIRECTION('',(0.,0.,1.));
#773 = DIRECTION('',(1.,0.,0.));
#774 = PCURVE('',#399,#775);
#775 = DEFINITIONAL_REPRESENTATION('',(#776),#780);
#776 = LINE('',#777,#778);
#777 = CARTESIAN_POINT('',(-0.,-10.));
#778 = VECTOR('',#779,1.);
#779 = DIRECTION('',(-1.,0.));
#780 = ( GEOMETRIC_REPRESENTATION_CONTEXT(2) 
PARAMETRIC_REPRESENTATION_CONTEXT() REPRESENTATION_CONTEXT('2D SPACE',''
  ) );
#781 = PCURVE('',#782,#787);
#782 = PLANE('',#783);
#783 = AXIS2_PLACEMENT_3D('',#784,#785,#786);
#784 = CARTESIAN_POINT('',(-1.953485903628E-16,2.47821720825E-16,100.));
#785 = DIRECTION('',(0.,0.,1.));
#786 = DIRECTION('',(1.,0.,-0.));
#787 = DEFINITIONAL_REPRESENTATION('',(#788),#792);
#788 = CIRCLE('',#789,3.5);
#789 = AXIS2_PLACEMENT_2D('',#790,#791);
#790 = CARTESIAN_POINT('',(1.953485903628E-16,-2.47821720825E-16));
#791 = DIRECTION('',(1.,0.));
#792 = ( GEOMETRIC_REPRESENTATION_CONTEXT(2) 
PARAMETRIC_REPRESENTATION_CONTEXT() REPRESENTATION_CONTEXT('2D SPACE',''
  ) );
#793 = ORIENTED_EDGE('',*,*,#744,.F.);
#794 = ORIENTED_EDGE('',*,*,#384,.F.);
#795 = ADVANCED_FACE('',(#796,#799),#453,.T.);
#796 = FACE_BOUND('',#797,.T.);
#797 = EDGE_LOOP('',(#798));
#798 = ORIENTED_EDGE('',*,*,#438,.T.);
#799 = FACE_BOUND('',#800,.T.);
#800 = EDGE_LOOP('',(#801));
#801 = ORIENTED_EDGE('',*,*,#802,.T.);
#802 = EDGE_CURVE('',#803,#803,#805,.T.);
#803 = VERTEX_POINT('',#804);
#804 = CARTESIAN_POINT('',(1.8,-37.77,50.4));
#805 = SURFACE_CURVE('',#806,(#811,#822),.PCURVE_S1.);
#806 = CIRCLE('',#807,1.8);
#807 = AXIS2_PLACEMENT_3D('',#808,#809,#810);
#808 = CARTESIAN_POINT('',(0.,-37.77,50.4));
#809 = DIRECTION('',(-0.,1.,0.));
#810 = DIRECTION('',(1.,0.,0.));
#811 = PCURVE('',#453,#812);
#812 = DEFINITIONAL_REPRESENTATION('',(#813),#821);
#813 = ( BOUNDED_CURVE() B_SPLINE_CURVE(2,(#814,#815,#816,#817,#818,#819
,#820),.UNSPECIFIED.,.T.,.F.) B_SPLINE_CURVE_WITH_KNOTS((1,2,2,2,2,1),(
    -2.094395102393,0.,2.094395102393,4.188790204786,6.28318530718,
8.377580409573),.UNSPECIFIED.) CURVE() GEOMETRIC_REPRESENTATION_ITEM() 
RATIONAL_B_SPLINE_CURVE((1.,0.5,1.,0.5,1.,0.5,1.)) REPRESENTATION_ITEM(
  '') );
#814 = CARTESIAN_POINT('',(0.,1.8));
#815 = CARTESIAN_POINT('',(3.117691453624,1.8));
#816 = CARTESIAN_POINT('',(1.558845726812,-0.9));
#817 = CARTESIAN_POINT('',(4.40872847693E-16,-3.6));
#818 = CARTESIAN_POINT('',(-1.558845726812,-0.9));
#819 = CARTESIAN_POINT('',(-3.117691453624,1.8));
#820 = CARTESIAN_POINT('',(0.,1.8));
#821 = ( GEOMETRIC_REPRESENTATION_CONTEXT(2) 
PARAMETRIC_REPRESENTATION_CONTEXT() REPRESENTATION_CONTEXT('2D SPACE',''
  ) );
#822 = PCURVE('',#823,#828);
#823 = CYLINDRICAL_SURFACE('',#824,1.8);
#824 = AXIS2_PLACEMENT_3D('',#825,#826,#827);
#825 = CARTESIAN_POINT('',(0.,0.,50.4));
#826 = DIRECTION('',(-0.,1.,-0.));
#827 = DIRECTION('',(1.,0.,0.));
#828 = DEFINITIONAL_REPRESENTATION('',(#829),#833);
#829 = LINE('',#830,#831);
#830 = CARTESIAN_POINT('',(-6.28318530718,-37.77));
#831 = VECTOR('',#832,1.);
#832 = DIRECTION('',(1.,-0.));
#833 = ( GEOMETRIC_REPRESENTATION_CONTEXT(2) 
PARAMETRIC_REPRESENTATION_CONTEXT() REPRESENTATION_CONTEXT('2D SPACE',''
  ) );
#834 = ADVANCED_FACE('',(#835,#838),#509,.F.);
#835 = FACE_BOUND('',#836,.F.);
#836 = EDGE_LOOP('',(#837));
#837 = ORIENTED_EDGE('',*,*,#494,.F.);
#838 = FACE_BOUND('',#839,.F.);
#839 = EDGE_LOOP('',(#840));
#840 = ORIENTED_EDGE('',*,*,#841,.F.);
#841 = EDGE_CURVE('',#842,#842,#844,.T.);
#842 = VERTEX_POINT('',#843);
#843 = CARTESIAN_POINT('',(14.261153846154,0.,72.));
#844 = SURFACE_CURVE('',#845,(#850,#857),.PCURVE_S1.);
#845 = CIRCLE('',#846,14.261153846154);
#846 = AXIS2_PLACEMENT_3D('',#847,#848,#849);
#847 = CARTESIAN_POINT('',(0.,0.,72.));
#848 = DIRECTION('',(0.,0.,1.));
#849 = DIRECTION('',(1.,0.,-0.));
#850 = PCURVE('',#509,#851);
#851 = DEFINITIONAL_REPRESENTATION('',(#852),#856);
#852 = CIRCLE('',#853,14.261153846154);
#853 = AXIS2_PLACEMENT_2D('',#854,#855);
#854 = CARTESIAN_POINT('',(0.,0.));
#855 = DIRECTION('',(1.,0.));
#856 = ( GEOMETRIC_REPRESENTATION_CONTEXT(2) 
PARAMETRIC_REPRESENTATION_CONTEXT() REPRESENTATION_CONTEXT('2D SPACE',''
  ) );
#857 = PCURVE('',#858,#863);
#858 = CONICAL_SURFACE('',#859,14.33,0.602939981056);
#859 = AXIS2_PLACEMENT_3D('',#860,#861,#862);
#860 = CARTESIAN_POINT('',(0.,0.,71.9));
#861 = DIRECTION('',(-0.,-0.,-1.));
#862 = DIRECTION('',(1.,0.,0.));
#863 = DEFINITIONAL_REPRESENTATION('',(#864),#868);
#864 = LINE('',#865,#866);
#865 = CARTESIAN_POINT('',(-0.,-9.999999999999E-02));
#866 = VECTOR('',#867,1.);
#867 = DIRECTION('',(-1.,-0.));
#868 = ( GEOMETRIC_REPRESENTATION_CONTEXT(2) 
PARAMETRIC_REPRESENTATION_CONTEXT() REPRESENTATION_CONTEXT('2D SPACE',''
  ) );
#869 = ADVANCED_FACE('',(#870),#667,.T.);
#870 = FACE_BOUND('',#871,.F.);
#871 = EDGE_LOOP('',(#872,#901,#922,#923));
#872 = ORIENTED_EDGE('',*,*,#873,.F.);
#873 = EDGE_CURVE('',#874,#874,#876,.T.);
#874 = VERTEX_POINT('',#875);
#875 = CARTESIAN_POINT('',(3.5,0.,50.4));
#876 = SURFACE_CURVE('',#877,(#882,#889),.PCURVE_S1.);
#877 = CIRCLE('',#878,3.5);
#878 = AXIS2_PLACEMENT_3D('',#879,#880,#881);
#879 = CARTESIAN_POINT('',(0.,0.,50.4));
#880 = DIRECTION('',(0.,-1.,0.));
#881 = DIRECTION('',(1.,0.,0.));
#882 = PCURVE('',#667,#883);
#883 = DEFINITIONAL_REPRESENTATION('',(#884),#888);
#884 = LINE('',#885,#886);
#885 = CARTESIAN_POINT('',(-0.,0.));
#886 = VECTOR('',#887,1.);
#887 = DIRECTION('',(-1.,0.));
#888 = ( GEOMETRIC_REPRESENTATION_CONTEXT(2) 
PARAMETRIC_REPRESENTATION_CONTEXT() REPRESENTATION_CONTEXT('2D SPACE',''
  ) );
#889 = PCURVE('',#890,#895);
#890 = PLANE('',#891);
#891 = AXIS2_PLACEMENT_3D('',#892,#893,#894);
#892 = CARTESIAN_POINT('',(9.767429518139E-17,0.,50.4));
#893 = DIRECTION('',(-0.,-1.,-0.));
#894 = DIRECTION('',(0.,0.,-1.));
#895 = DEFINITIONAL_REPRESENTATION('',(#896),#900);
#896 = CIRCLE('',#897,3.5);
#897 = AXIS2_PLACEMENT_2D('',#898,#899);
#898 = CARTESIAN_POINT('',(0.,-9.767429518139E-17));
#899 = DIRECTION('',(0.,1.));
#900 = ( GEOMETRIC_REPRESENTATION_CONTEXT(2) 
PARAMETRIC_REPRESENTATION_CONTEXT() REPRESENTATION_CONTEXT('2D SPACE',''
  ) );
#901 = ORIENTED_EDGE('',*,*,#902,.T.);
#902 = EDGE_CURVE('',#874,#528,#903,.T.);
#903 = SEAM_CURVE('',#904,(#908,#915),.PCURVE_S1.);
#904 = LINE('',#905,#906);
#905 = CARTESIAN_POINT('',(3.5,0.,50.4));
#906 = VECTOR('',#907,1.);
#907 = DIRECTION('',(0.,-1.,0.));
#908 = PCURVE('',#667,#909);
#909 = DEFINITIONAL_REPRESENTATION('',(#910),#914);
#910 = LINE('',#911,#912);
#911 = CARTESIAN_POINT('',(-6.28318530718,0.));
#912 = VECTOR('',#913,1.);
#913 = DIRECTION('',(-0.,-1.));
#914 = ( GEOMETRIC_REPRESENTATION_CONTEXT(2) 
PARAMETRIC_REPRESENTATION_CONTEXT() REPRESENTATION_CONTEXT('2D SPACE',''
  ) );
#915 = PCURVE('',#667,#916);
#916 = DEFINITIONAL_REPRESENTATION('',(#917),#921);
#917 = LINE('',#918,#919);
#918 = CARTESIAN_POINT('',(-0.,0.));
#919 = VECTOR('',#920,1.);
#920 = DIRECTION('',(-0.,-1.));
#921 = ( GEOMETRIC_REPRESENTATION_CONTEXT(2) 
PARAMETRIC_REPRESENTATION_CONTEXT() REPRESENTATION_CONTEXT('2D SPACE',''
  ) );
#922 = ORIENTED_EDGE('',*,*,#527,.T.);
#923 = ORIENTED_EDGE('',*,*,#902,.F.);
#924 = ADVANCED_FACE('',(#925,#928),#782,.T.);
#925 = FACE_BOUND('',#926,.T.);
#926 = EDGE_LOOP('',(#927));
#927 = ORIENTED_EDGE('',*,*,#767,.T.);
#928 = FACE_BOUND('',#929,.T.);
#929 = EDGE_LOOP('',(#930));
#930 = ORIENTED_EDGE('',*,*,#931,.T.);
#931 = EDGE_CURVE('',#932,#932,#934,.T.);
#932 = VERTEX_POINT('',#933);
#933 = CARTESIAN_POINT('',(1.8,0.,100.));
#934 = SURFACE_CURVE('',#935,(#940,#951),.PCURVE_S1.);
#935 = CIRCLE('',#936,1.8);
#936 = AXIS2_PLACEMENT_3D('',#937,#938,#939);
#937 = CARTESIAN_POINT('',(0.,0.,100.));
#938 = DIRECTION('',(0.,0.,-1.));
#939 = DIRECTION('',(1.,0.,0.));
#940 = PCURVE('',#782,#941);
#941 = DEFINITIONAL_REPRESENTATION('',(#942),#950);
#942 = ( BOUNDED_CURVE() B_SPLINE_CURVE(2,(#943,#944,#945,#946,#947,#948
,#949),.UNSPECIFIED.,.T.,.F.) B_SPLINE_CURVE_WITH_KNOTS((1,2,2,2,2,1),(
    -2.094395102393,0.,2.094395102393,4.188790204786,6.28318530718,
8.377580409573),.UNSPECIFIED.) CURVE() GEOMETRIC_REPRESENTATION_ITEM() 
RATIONAL_B_SPLINE_CURVE((1.,0.5,1.,0.5,1.,0.5,1.)) REPRESENTATION_ITEM(
  '') );
#943 = CARTESIAN_POINT('',(1.8,-2.47821720825E-16));
#944 = CARTESIAN_POINT('',(1.8,-3.117691453624));
#945 = CARTESIAN_POINT('',(-0.9,-1.558845726812));
#946 = CARTESIAN_POINT('',(-3.6,-6.886945685181E-16));
#947 = CARTESIAN_POINT('',(-0.9,1.558845726812));
#948 = CARTESIAN_POINT('',(1.8,3.117691453624));
#949 = CARTESIAN_POINT('',(1.8,-2.47821720825E-16));
#950 = ( GEOMETRIC_REPRESENTATION_CONTEXT(2) 
PARAMETRIC_REPRESENTATION_CONTEXT() REPRESENTATION_CONTEXT('2D SPACE',''
  ) );
#951 = PCURVE('',#952,#957);
#952 = CYLINDRICAL_SURFACE('',#953,1.8);
#953 = AXIS2_PLACEMENT_3D('',#954,#955,#956);
#954 = CARTESIAN_POINT('',(0.,0.,89.9));
#955 = DIRECTION('',(-0.,-0.,-1.));
#956 = DIRECTION('',(1.,0.,0.));
#957 = DEFINITIONAL_REPRESENTATION('',(#958),#962);
#958 = LINE('',#959,#960);
#959 = CARTESIAN_POINT('',(-6.28318530718,-10.1));
#960 = VECTOR('',#961,1.);
#961 = DIRECTION('',(1.,-0.));
#962 = ( GEOMETRIC_REPRESENTATION_CONTEXT(2) 
PARAMETRIC_REPRESENTATION_CONTEXT() REPRESENTATION_CONTEXT('2D SPACE',''
  ) );
#963 = ADVANCED_FACE('',(#964),#823,.F.);
#964 = FACE_BOUND('',#965,.T.);
#965 = EDGE_LOOP('',(#966,#990,#1011,#1012));
#966 = ORIENTED_EDGE('',*,*,#967,.F.);
#967 = EDGE_CURVE('',#968,#968,#970,.T.);
#968 = VERTEX_POINT('',#969);
#969 = CARTESIAN_POINT('',(1.8,0.,50.4));
#970 = SURFACE_CURVE('',#971,(#976,#983),.PCURVE_S1.);
#971 = CIRCLE('',#972,1.8);
#972 = AXIS2_PLACEMENT_3D('',#973,#974,#975);
#973 = CARTESIAN_POINT('',(0.,0.,50.4));
#974 = DIRECTION('',(0.,-1.,0.));
#975 = DIRECTION('',(1.,0.,0.));
#976 = PCURVE('',#823,#977);
#977 = DEFINITIONAL_REPRESENTATION('',(#978),#982);
#978 = LINE('',#979,#980);
#979 = CARTESIAN_POINT('',(-0.,0.));
#980 = VECTOR('',#981,1.);
#981 = DIRECTION('',(-1.,0.));
#982 = ( GEOMETRIC_REPRESENTATION_CONTEXT(2) 
PARAMETRIC_REPRESENTATION_CONTEXT() REPRESENTATION_CONTEXT('2D SPACE',''
  ) );
#983 = PCURVE('',#890,#984);
#984 = DEFINITIONAL_REPRESENTATION('',(#985),#989);
#985 = CIRCLE('',#986,1.8);
#986 = AXIS2_PLACEMENT_2D('',#987,#988);
#987 = CARTESIAN_POINT('',(0.,-9.767429518139E-17));
#988 = DIRECTION('',(0.,1.));
#989 = ( GEOMETRIC_REPRESENTATION_CONTEXT(2) 
PARAMETRIC_REPRESENTATION_CONTEXT() REPRESENTATION_CONTEXT('2D SPACE',''
  ) );
#990 = ORIENTED_EDGE('',*,*,#991,.T.);
#991 = EDGE_CURVE('',#968,#803,#992,.T.);
#992 = SEAM_CURVE('',#993,(#997,#1004),.PCURVE_S1.);
#993 = LINE('',#994,#995);
#994 = CARTESIAN_POINT('',(1.8,0.,50.4));
#995 = VECTOR('',#996,1.);
#996 = DIRECTION('',(0.,-1.,0.));
#997 = PCURVE('',#823,#998);
#998 = DEFINITIONAL_REPRESENTATION('',(#999),#1003);
#999 = LINE('',#1000,#1001);
#1000 = CARTESIAN_POINT('',(-6.28318530718,0.));
#1001 = VECTOR('',#1002,1.);
#1002 = DIRECTION('',(-0.,-1.));
#1003 = ( GEOMETRIC_REPRESENTATION_CONTEXT(2) 
PARAMETRIC_REPRESENTATION_CONTEXT() REPRESENTATION_CONTEXT('2D SPACE',''
  ) );
#1004 = PCURVE('',#823,#1005);
#1005 = DEFINITIONAL_REPRESENTATION('',(#1006),#1010);
#1006 = LINE('',#1007,#1008);
#1007 = CARTESIAN_POINT('',(-0.,0.));
#1008 = VECTOR('',#1009,1.);
#1009 = DIRECTION('',(-0.,-1.));
#1010 = ( GEOMETRIC_REPRESENTATION_CONTEXT(2) 
PARAMETRIC_REPRESENTATION_CONTEXT() REPRESENTATION_CONTEXT('2D SPACE',''
  ) );
#1011 = ORIENTED_EDGE('',*,*,#802,.F.);
#1012 = ORIENTED_EDGE('',*,*,#991,.F.);
#1013 = ADVANCED_FACE('',(#1014),#858,.F.);
#1014 = FACE_BOUND('',#1015,.F.);
#1015 = EDGE_LOOP('',(#1016,#1017,#1037,#1064));
#1016 = ORIENTED_EDGE('',*,*,#841,.T.);
#1017 = ORIENTED_EDGE('',*,*,#1018,.T.);
#1018 = EDGE_CURVE('',#842,#1019,#1021,.T.);
#1019 = VERTEX_POINT('',#1020);
#1020 = CARTESIAN_POINT('',(1.868846153846,0.,90.));
#1021 = SEAM_CURVE('',#1022,(#1025,#1031),.PCURVE_S1.);
#1022 = B_SPLINE_CURVE_WITH_KNOTS('',1,(#1023,#1024),.UNSPECIFIED.,.F.,
  .F.,(2,2),(0.,1.),.PIECEWISE_BEZIER_KNOTS.);
#1023 = CARTESIAN_POINT('',(14.33,0.,71.9));
#1024 = CARTESIAN_POINT('',(1.8,0.,90.1));
#1025 = PCURVE('',#858,#1026);
#1026 = DEFINITIONAL_REPRESENTATION('',(#1027),#1030);
#1027 = B_SPLINE_CURVE_WITH_KNOTS('',1,(#1028,#1029),.UNSPECIFIED.,.F.,
  .F.,(2,2),(0.,1.),.PIECEWISE_BEZIER_KNOTS.);
#1028 = CARTESIAN_POINT('',(0.,0.));
#1029 = CARTESIAN_POINT('',(0.,-18.2));
#1030 = ( GEOMETRIC_REPRESENTATION_CONTEXT(2) 
PARAMETRIC_REPRESENTATION_CONTEXT() REPRESENTATION_CONTEXT('2D SPACE',''
  ) );
#1031 = PCURVE('',#858,#1032);
#1032 = DEFINITIONAL_REPRESENTATION('',(#1033),#1036);
#1033 = B_SPLINE_CURVE_WITH_KNOTS('',1,(#1034,#1035),.UNSPECIFIED.,.F.,
  .F.,(2,2),(0.,1.),.PIECEWISE_BEZIER_KNOTS.);
#1034 = CARTESIAN_POINT('',(-6.28318530718,0.));
#1035 = CARTESIAN_POINT('',(-6.28318530718,-18.2));
#1036 = ( GEOMETRIC_REPRESENTATION_CONTEXT(2) 
PARAMETRIC_REPRESENTATION_CONTEXT() REPRESENTATION_CONTEXT('2D SPACE',''
  ) );
#1037 = ORIENTED_EDGE('',*,*,#1038,.F.);
#1038 = EDGE_CURVE('',#1019,#1019,#1039,.T.);
#1039 = SURFACE_CURVE('',#1040,(#1045,#1052),.PCURVE_S1.);
#1040 = CIRCLE('',#1041,1.868846153846);
#1041 = AXIS2_PLACEMENT_3D('',#1042,#1043,#1044);
#1042 = CARTESIAN_POINT('',(0.,0.,90.));
#1043 = DIRECTION('',(0.,0.,1.));
#1044 = DIRECTION('',(1.,0.,-0.));
#1045 = PCURVE('',#858,#1046);
#1046 = DEFINITIONAL_REPRESENTATION('',(#1047),#1051);
#1047 = LINE('',#1048,#1049);
#1048 = CARTESIAN_POINT('',(-0.,-18.1));
#1049 = VECTOR('',#1050,1.);
#1050 = DIRECTION('',(-1.,-0.));
#1051 = ( GEOMETRIC_REPRESENTATION_CONTEXT(2) 
PARAMETRIC_REPRESENTATION_CONTEXT() REPRESENTATION_CONTEXT('2D SPACE',''
  ) );
#1052 = PCURVE('',#1053,#1058);
#1053 = PLANE('',#1054);
#1054 = AXIS2_PLACEMENT_3D('',#1055,#1056,#1057);
#1055 = CARTESIAN_POINT('',(-1.953485903628E-16,2.47821720825E-16,90.));
#1056 = DIRECTION('',(0.,0.,1.));
#1057 = DIRECTION('',(1.,0.,-0.));
#1058 = DEFINITIONAL_REPRESENTATION('',(#1059),#1063);
#1059 = CIRCLE('',#1060,1.868846153846);
#1060 = AXIS2_PLACEMENT_2D('',#1061,#1062);
#1061 = CARTESIAN_POINT('',(1.953485903628E-16,-2.47821720825E-16));
#1062 = DIRECTION('',(1.,0.));
#1063 = ( GEOMETRIC_REPRESENTATION_CONTEXT(2) 
PARAMETRIC_REPRESENTATION_CONTEXT() REPRESENTATION_CONTEXT('2D SPACE',''
  ) );
#1064 = ORIENTED_EDGE('',*,*,#1018,.F.);
#1065 = ADVANCED_FACE('',(#1066,#1069),#890,.F.);
#1066 = FACE_BOUND('',#1067,.F.);
#1067 = EDGE_LOOP('',(#1068));
#1068 = ORIENTED_EDGE('',*,*,#873,.T.);
#1069 = FACE_BOUND('',#1070,.F.);
#1070 = EDGE_LOOP('',(#1071));
#1071 = ORIENTED_EDGE('',*,*,#967,.F.);
#1072 = ADVANCED_FACE('',(#1073),#952,.F.);
#1073 = FACE_BOUND('',#1074,.T.);
#1074 = EDGE_LOOP('',(#1075,#1103,#1124,#1125));
#1075 = ORIENTED_EDGE('',*,*,#1076,.T.);
#1076 = EDGE_CURVE('',#1077,#1077,#1079,.T.);
#1077 = VERTEX_POINT('',#1078);
#1078 = CARTESIAN_POINT('',(1.8,0.,90.));
#1079 = SURFACE_CURVE('',#1080,(#1085,#1092),.PCURVE_S1.);
#1080 = CIRCLE('',#1081,1.8);
#1081 = AXIS2_PLACEMENT_3D('',#1082,#1083,#1084);
#1082 = CARTESIAN_POINT('',(0.,0.,90.));
#1083 = DIRECTION('',(0.,0.,-1.));
#1084 = DIRECTION('',(1.,0.,0.));
#1085 = PCURVE('',#952,#1086);
#1086 = DEFINITIONAL_REPRESENTATION('',(#1087),#1091);
#1087 = LINE('',#1088,#1089);
#1088 = CARTESIAN_POINT('',(-6.28318530718,-9.999999999999E-02));
#1089 = VECTOR('',#1090,1.);
#1090 = DIRECTION('',(1.,-0.));
#1091 = ( GEOMETRIC_REPRESENTATION_CONTEXT(2) 
PARAMETRIC_REPRESENTATION_CONTEXT() REPRESENTATION_CONTEXT('2D SPACE',''
  ) );
#1092 = PCURVE('',#1053,#1093);
#1093 = DEFINITIONAL_REPRESENTATION('',(#1094),#1102);
#1094 = ( BOUNDED_CURVE() B_SPLINE_CURVE(2,(#1095,#1096,#1097,#1098,
#1099,#1100,#1101),.UNSPECIFIED.,.T.,.F.) B_SPLINE_CURVE_WITH_KNOTS((1,2
    ,2,2,2,1),(-2.094395102393,0.,2.094395102393,4.188790204786,
6.28318530718,8.377580409573),.UNSPECIFIED.) CURVE() 
GEOMETRIC_REPRESENTATION_ITEM() RATIONAL_B_SPLINE_CURVE((1.,0.5,1.,0.5,
1.,0.5,1.)) REPRESENTATION_ITEM('') );
#1095 = CARTESIAN_POINT('',(1.8,-2.47821720825E-16));
#1096 = CARTESIAN_POINT('',(1.8,-3.117691453624));
#1097 = CARTESIAN_POINT('',(-0.9,-1.558845726812));
#1098 = CARTESIAN_POINT('',(-3.6,-6.886945685181E-16));
#1099 = CARTESIAN_POINT('',(-0.9,1.558845726812));
#1100 = CARTESIAN_POINT('',(1.8,3.117691453624));
#1101 = CARTESIAN_POINT('',(1.8,-2.47821720825E-16));
#1102 = ( GEOMETRIC_REPRESENTATION_CONTEXT(2) 
PARAMETRIC_REPRESENTATION_CONTEXT() REPRESENTATION_CONTEXT('2D SPACE',''
  ) );
#1103 = ORIENTED_EDGE('',*,*,#1104,.T.);
#1104 = EDGE_CURVE('',#1077,#932,#1105,.T.);
#1105 = SEAM_CURVE('',#1106,(#1110,#1117),.PCURVE_S1.);
#1106 = LINE('',#1107,#1108);
#1107 = CARTESIAN_POINT('',(1.8,0.,89.9));
#1108 = VECTOR('',#1109,1.);
#1109 = DIRECTION('',(0.,0.,1.));
#1110 = PCURVE('',#952,#1111);
#1111 = DEFINITIONAL_REPRESENTATION('',(#1112),#1116);
#1112 = LINE('',#1113,#1114);
#1113 = CARTESIAN_POINT('',(-6.28318530718,0.));
#1114 = VECTOR('',#1115,1.);
#1115 = DIRECTION('',(-0.,-1.));
#1116 = ( GEOMETRIC_REPRESENTATION_CONTEXT(2) 
PARAMETRIC_REPRESENTATION_CONTEXT() REPRESENTATION_CONTEXT('2D SPACE',''
  ) );
#1117 = PCURVE('',#952,#1118);
#1118 = DEFINITIONAL_REPRESENTATION('',(#1119),#1123);
#1119 = LINE('',#1120,#1121);
#1120 = CARTESIAN_POINT('',(-0.,0.));
#1121 = VECTOR('',#1122,1.);
#1122 = DIRECTION('',(-0.,-1.));
#1123 = ( GEOMETRIC_REPRESENTATION_CONTEXT(2) 
PARAMETRIC_REPRESENTATION_CONTEXT() REPRESENTATION_CONTEXT('2D SPACE',''
  ) );
#1124 = ORIENTED_EDGE('',*,*,#931,.F.);
#1125 = ORIENTED_EDGE('',*,*,#1104,.F.);
#1126 = ADVANCED_FACE('',(#1127,#1130),#1053,.F.);
#1127 = FACE_BOUND('',#1128,.F.);
#1128 = EDGE_LOOP('',(#1129));
#1129 = ORIENTED_EDGE('',*,*,#1038,.T.);
#1130 = FACE_BOUND('',#1131,.F.);
#1131 = EDGE_LOOP('',(#1132));
#1132 = ORIENTED_EDGE('',*,*,#1076,.T.);
#1133 = ( GEOMETRIC_REPRESENTATION_CONTEXT(3) 
GLOBAL_UNCERTAINTY_ASSIGNED_CONTEXT((#1137)) 
GLOBAL_UNIT_ASSIGNED_CONTEXT((#1134,#1135,#1136)) REPRESENTATION_CONTEXT
('Context #1','3D Context with UNIT and UNCERTAINTY') );
#1134 = ( LENGTH_UNIT() NAMED_UNIT(*) SI_UNIT(.MILLI.,.METRE.) );
#1135 = ( NAMED_UNIT(*) PLANE_ANGLE_UNIT() SI_UNIT($,.RADIAN.) );
#1136 = ( NAMED_UNIT(*) SI_UNIT($,.STERADIAN.) SOLID_ANGLE_UNIT() );
#1137 = UNCERTAINTY_MEASURE_WITH_UNIT(LENGTH_MEASURE(1.E-07),#1134,
  'distance_accuracy_value','confusion accuracy');
#1138 = PRODUCT_RELATED_PRODUCT_CATEGORY('part',$,(#7));
ENDSEC;
END-ISO-10303-21;
