# Rocket engine section OBJ
v 0.0 0.0 0.0
v 0.0 0.0 0.0
v 0.0 0.0 0.0
v 0.0 0.0 0.0
v 0.0 0.0 0.0
v 0.0 0.0 0.0
v 0.0 0.0 0.0
v 0.0 0.0 0.0
v 0.0 0.0 0.0
v 0.0 0.0 0.0
v 0.0 0.0 0.0
v 0.0 0.0 0.0
v 0.0 0.0 0.0
v -0.0 0.0 0.0
v -0.0 0.0 0.0
v -0.0 0.0 0.0
v -0.0 0.0 0.0
v -0.0 0.0 0.0
v -0.0 0.0 0.0
v -0.0 0.0 0.0
v -0.0 0.0 0.0
v -0.0 0.0 0.0
v -0.0 0.0 0.0
v -0.0 0.0 0.0
v -0.0 0.0 0.0
v -0.0 -0.0 0.0
v -0.0 -0.0 0.0
v -0.0 -0.0 0.0
v -0.0 -0.0 0.0
v -0.0 -0.0 0.0
v -0.0 -0.0 0.0
v -0.0 -0.0 0.0
v -0.0 -0.0 0.0
v -0.0 -0.0 0.0
v -0.0 -0.0 0.0
v -0.0 -0.0 0.0
v -0.0 -0.0 0.0
v 0.0 -0.0 0.0
v 0.0 -0.0 0.0
v 0.0 -0.0 0.0
v 0.0 -0.0 0.0
v 0.0 -0.0 0.0
v 0.0 -0.0 0.0
v 0.0 -0.0 0.0
v 0.0 -0.0 0.0
v 0.0 -0.0 0.0
v 0.0 -0.0 0.0
v 0.0 -0.0 0.0
v 1.8 0.0 0.0
v 1.7846007504728587 0.23494714599609284 0.0
v 1.738666487320323 0.46587428118453733 0.0
v 1.662983158520316 0.6888301782571616 0.0
v 1.5588457268119897 0.8999999999999999 0.0
v 1.4280360125242233 1.0957705722156972 0.0
v 1.2727922061357857 1.2727922061357855 0.0
v 1.0957705722156972 1.4280360125242233 0.0
v 0.9000000000000002 1.5588457268119895 0.0
v 0.6888301782571618 1.662983158520316 0.0
v 0.46587428118453733 1.738666487320323 0.0
v 0.2349471459960931 1.7846007504728587 0.0
v 1.1021821192326179e-16 1.8 0.0
v -0.2349471459960929 1.7846007504728587 0.0
v -0.46587428118453716 1.738666487320323 0.0
v -0.6888301782571611 1.6629831585203163 0.0
v -0.8999999999999996 1.5588457268119897 0.0
v -1.0957705722156972 1.4280360125242233 0.0
v -1.2727922061357855 1.2727922061357857 0.0
v -1.428036012524223 1.0957705722156976 0.0
v -1.5588457268119897 0.8999999999999999 0.0
v -1.662983158520316 0.6888301782571619 0.0
v -1.7386664873203228 0.46587428118453783 0.0
v -1.7846007504728587 0.2349471459960936 0.0
v -1.8 2.2043642384652358e-16 0.0
v -1.7846007504728587 -0.23494714599609318 0.0
v -1.738666487320323 -0.46587428118453744 0.0
v -1.6629831585203163 -0.6888301782571614 0.0
v -1.55884572681199 -0.8999999999999995 0.0
v -1.4280360125242233 -1.0957705722156972 0.0
v -1.2727922061357864 -1.2727922061357848 0.0
v -1.0957705722156976 -1.4280360125242229 0.0
v -0.9000000000000008 -1.558845726811989 0.0
v -0.6888301782571611 -1.6629831585203163 0.0
v -0.46587428118453716 -1.738666487320323 0.0
v -0.23494714599609293 -1.7846007504728587 0.0
v -3.3065463576978537e-16 -1.8 0.0
v 0.2349471459960923 -1.784600750472859 0.0
v 0.46587428118453655 -1.7386664873203233 0.0
v 0.6888301782571605 -1.6629831585203165 0.0
v 0.9000000000000002 -1.5588457268119895 0.0
v 1.0957705722156958 -1.4280360125242244 0.0
v 1.2727922061357853 -1.272792206135786 0.0
v 1.4280360125242229 -1.0957705722156976 0.0
v 1.558845726811989 -0.9000000000000008 0.0
v 1.6629831585203163 -0.6888301782571612 0.0
v 1.7386664873203226 -0.46587428118453883 0.0
v 1.7846007504728587 -0.23494714599609304 0.0
v 2.0 0.0 0.5
v 1.9828897227476208 0.26105238444010315 0.5
v 1.9318516525781366 0.5176380902050415 0.5
v 1.8477590650225735 0.7653668647301796 0.5
v 1.7320508075688774 0.9999999999999999 0.5
v 1.5867066805824703 1.2175228580174413 0.5
v 1.4142135623730951 1.414213562373095 0.5
v 1.2175228580174413 1.5867066805824703 0.5
v 1.0000000000000002 1.7320508075688772 0.5
v 0.7653668647301797 1.8477590650225735 0.5
v 0.5176380902050415 1.9318516525781366 0.5
v 0.2610523844401034 1.9828897227476208 0.5
v 1.2246467991473532e-16 2.0 0.5
v -0.2610523844401032 1.9828897227476208 0.5
v -0.5176380902050413 1.9318516525781366 0.5
v -0.765366864730179 1.8477590650225737 0.5
v -0.9999999999999996 1.7320508075688774 0.5
v -1.2175228580174413 1.5867066805824703 0.5
v -1.414213562373095 1.4142135623730951 0.5
v -1.58670668058247 1.2175228580174418 0.5
v -1.7320508075688774 0.9999999999999999 0.5
v -1.8477590650225735 0.7653668647301798 0.5
v -1.9318516525781364 0.517638090205042 0.5
v -1.9828897227476208 0.261052384440104 0.5
v -2.0 2.4492935982947064e-16 0.5
v -1.9828897227476208 -0.26105238444010354 0.5
v -1.9318516525781366 -0.5176380902050416 0.5
v -1.8477590650225737 -0.7653668647301793 0.5
v -1.7320508075688776 -0.9999999999999994 0.5
v -1.5867066805824703 -1.2175228580174413 0.5
v -1.4142135623730958 -1.4142135623730943 0.5
v -1.2175228580174418 -1.5867066805824699 0.5
v -1.0000000000000009 -1.7320508075688767 0.5
v -0.765366864730179 -1.8477590650225737 0.5
v -0.5176380902050413 -1.9318516525781366 0.5
v -0.26105238444010326 -1.9828897227476208 0.5
v -3.6739403974420594e-16 -2.0 0.5
v 0.26105238444010254 -1.982889722747621 0.5
v 0.5176380902050406 -1.9318516525781368 0.5
v 0.7653668647301783 -1.847759065022574 0.5
v 1.0000000000000002 -1.7320508075688772 0.5
v 1.2175228580174398 -1.5867066805824714 0.5
v 1.4142135623730947 -1.4142135623730954 0.5
v 1.5867066805824699 -1.2175228580174418 0.5
v 1.7320508075688767 -1.0000000000000009 0.5
v 1.8477590650225737 -0.7653668647301791 0.5
v 1.9318516525781362 -0.5176380902050431 0.5
v 1.9828897227476208 -0.26105238444010337 0.5
v 2.2 0.0 2.0
v 2.181178695022383 0.2871576228841135 2.0
v 2.1250368178359507 0.5694018992255456 2.0
v 2.032534971524831 0.8419035512031976 2.0
v 1.9052558883257653 1.0999999999999999 2.0
v 1.7453773486407176 1.3392751438191854 2.0
v 1.5556349186104048 1.5556349186104046 2.0
v 1.3392751438191854 1.7453773486407176 2.0
v 1.1000000000000003 1.905255888325765 2.0
v 0.8419035512031977 2.032534971524831 2.0
v 0.5694018992255456 2.1250368178359507 2.0
v 0.2871576228841138 2.181178695022383 2.0
v 1.3471114790620887e-16 2.2 2.0
v -0.28715762288411356 2.181178695022383 2.0
v -0.5694018992255454 2.1250368178359507 2.0
v -0.8419035512031969 2.0325349715248313 2.0
v -1.0999999999999996 1.9052558883257653 2.0
v -1.3392751438191854 1.7453773486407176 2.0
v -1.5556349186104046 1.5556349186104048 2.0
v -1.7453773486407174 1.339275143819186 2.0
v -1.9052558883257653 1.0999999999999999 2.0
v -2.032534971524831 0.8419035512031978 2.0
v -2.12503681783595 0.5694018992255463 2.0
v -2.181178695022383 0.2871576228841144 2.0
v -2.2 2.6942229581241775e-16 2.0
v -2.181178695022383 -0.2871576228841139 2.0
v -2.1250368178359507 -0.5694018992255458 2.0
v -2.0325349715248313 -0.8419035512031974 2.0
v -1.9052558883257655 -1.0999999999999994 2.0
v -1.7453773486407176 -1.3392751438191854 2.0
v -1.5556349186104055 -1.5556349186104037 2.0
v -1.339275143819186 -1.745377348640717 2.0
v -1.100000000000001 -1.9052558883257646 2.0
v -0.8419035512031969 -2.0325349715248313 2.0
v -0.5694018992255454 -2.1250368178359507 2.0
v -0.2871576228841136 -2.181178695022383 2.0
v -4.0413344371862655e-16 -2.2 2.0
v 0.28715762288411284 -2.1811786950223833 2.0
v 0.5694018992255447 -2.1250368178359507 2.0
v 0.8419035512031963 -2.0325349715248313 2.0
v 1.1000000000000003 -1.905255888325765 2.0
v 1.3392751438191839 -1.7453773486407187 2.0
v 1.5556349186104044 -1.555634918610405 2.0
v 1.745377348640717 -1.339275143819186 2.0
v 1.9052558883257646 -1.100000000000001 2.0
v 2.0325349715248313 -0.8419035512031972 2.0
v 2.1250368178359498 -0.5694018992255475 2.0
v 2.181178695022383 -0.28715762288411373 2.0
v 2.2 0.0 10.0
v 2.181178695022383 0.2871576228841135 10.0
v 2.1250368178359507 0.5694018992255456 10.0
v 2.032534971524831 0.8419035512031976 10.0
v 1.9052558883257653 1.0999999999999999 10.0
v 1.7453773486407176 1.3392751438191854 10.0
v 1.5556349186104048 1.5556349186104046 10.0
v 1.3392751438191854 1.7453773486407176 10.0
v 1.1000000000000003 1.905255888325765 10.0
v 0.8419035512031977 2.032534971524831 10.0
v 0.5694018992255456 2.1250368178359507 10.0
v 0.2871576228841138 2.181178695022383 10.0
v 1.3471114790620887e-16 2.2 10.0
v -0.28715762288411356 2.181178695022383 10.0
v -0.5694018992255454 2.1250368178359507 10.0
v -0.8419035512031969 2.0325349715248313 10.0
v -1.0999999999999996 1.9052558883257653 10.0
v -1.3392751438191854 1.7453773486407176 10.0
v -1.5556349186104046 1.5556349186104048 10.0
v -1.7453773486407174 1.339275143819186 10.0
v -1.9052558883257653 1.0999999999999999 10.0
v -2.032534971524831 0.8419035512031978 10.0
v -2.12503681783595 0.5694018992255463 10.0
v -2.181178695022383 0.2871576228841144 10.0
v -2.2 2.6942229581241775e-16 10.0
v -2.181178695022383 -0.2871576228841139 10.0
v -2.1250368178359507 -0.5694018992255458 10.0
v -2.0325349715248313 -0.8419035512031974 10.0
v -1.9052558883257655 -1.0999999999999994 10.0
v -1.7453773486407176 -1.3392751438191854 10.0
v -1.5556349186104055 -1.5556349186104037 10.0
v -1.339275143819186 -1.745377348640717 10.0
v -1.100000000000001 -1.9052558883257646 10.0
v -0.8419035512031969 -2.0325349715248313 10.0
v -0.5694018992255454 -2.1250368178359507 10.0
v -0.2871576228841136 -2.181178695022383 10.0
v -4.0413344371862655e-16 -2.2 10.0
v 0.28715762288411284 -2.1811786950223833 10.0
v 0.5694018992255447 -2.1250368178359507 10.0
v 0.8419035512031963 -2.0325349715248313 10.0
v 1.1000000000000003 -1.905255888325765 10.0
v 1.3392751438191839 -1.7453773486407187 10.0
v 1.5556349186104044 -1.555634918610405 10.0
v 1.745377348640717 -1.339275143819186 10.0
v 1.9052558883257646 -1.100000000000001 10.0
v 2.0325349715248313 -0.8419035512031972 10.0
v 2.1250368178359498 -0.5694018992255475 10.0
v 2.181178695022383 -0.28715762288411373 10.0
v 2.6 0.0 10.0
v 2.577756639571907 0.3393680997721341 10.0
v 2.511407148351578 0.6729295172665539 10.0
v 2.4020867845293457 0.9949769241492334 10.0
v 2.2516660498395407 1.2999999999999998 10.0
v 2.0627186847572117 1.5827797154226737 10.0
v 1.8384776310850237 1.8384776310850235 10.0
v 1.5827797154226737 2.0627186847572117 10.0
v 1.3000000000000003 2.25166604983954 10.0
v 0.9949769241492337 2.4020867845293457 10.0
v 0.6729295172665539 2.511407148351578 10.0
v 0.33936809977213445 2.577756639571907 10.0
v 1.5920408388915593e-16 2.6 10.0
v -0.33936809977213417 2.577756639571907 10.0
v -0.6729295172665537 2.511407148351578 10.0
v -0.9949769241492328 2.402086784529346 10.0
v -1.2999999999999994 2.2516660498395407 10.0
v -1.5827797154226737 2.0627186847572117 10.0
v -1.8384776310850235 1.8384776310850237 10.0
v -2.062718684757211 1.5827797154226744 10.0
v -2.2516660498395407 1.2999999999999998 10.0
v -2.4020867845293457 0.9949769241492338 10.0
v -2.5114071483515774 0.6729295172665547 10.0
v -2.577756639571907 0.33936809977213517 10.0
v -2.6 3.1840816777831187e-16 10.0
v -2.577756639571907 -0.3393680997721346 10.0
v -2.511407148351578 -0.6729295172665541 10.0
v -2.402086784529346 -0.9949769241492332 10.0
v -2.251666049839541 -1.2999999999999994 10.0
v -2.0627186847572117 -1.5827797154226737 10.0
v -1.8384776310850246 -1.8384776310850226 10.0
v -1.5827797154226744 -2.0627186847572108 10.0
v -1.3000000000000012 -2.2516660498395398 10.0
v -0.9949769241492328 -2.402086784529346 10.0
v -0.6729295172665537 -2.511407148351578 10.0
v -0.3393680997721342 -2.577756639571907 10.0
v -4.776122516674677e-16 -2.6 10.0
v 0.33936809977213334 -2.5777566395719074 10.0
v 0.6729295172665528 -2.511407148351578 10.0
v 0.9949769241492319 -2.402086784529346 10.0
v 1.3000000000000003 -2.25166604983954 10.0
v 1.5827797154226717 -2.062718684757213 10.0
v 1.8384776310850233 -1.838477631085024 10.0
v 2.0627186847572108 -1.5827797154226744 10.0
v 2.2516660498395398 -1.3000000000000012 10.0
v 2.402086784529346 -0.9949769241492329 10.0
v 2.511407148351577 -0.6729295172665561 10.0
v 2.577756639571907 -0.3393680997721344 10.0
v 2.6 0.0 11.0
v 2.577756639571907 0.3393680997721341 11.0
v 2.511407148351578 0.6729295172665539 11.0
v 2.4020867845293457 0.9949769241492334 11.0
v 2.2516660498395407 1.2999999999999998 11.0
v 2.0627186847572117 1.5827797154226737 11.0
v 1.8384776310850237 1.8384776310850235 11.0
v 1.5827797154226737 2.0627186847572117 11.0
v 1.3000000000000003 2.25166604983954 11.0
v 0.9949769241492337 2.4020867845293457 11.0
v 0.6729295172665539 2.511407148351578 11.0
v 0.33936809977213445 2.577756639571907 11.0
v 1.5920408388915593e-16 2.6 11.0
v -0.33936809977213417 2.577756639571907 11.0
v -0.6729295172665537 2.511407148351578 11.0
v -0.9949769241492328 2.402086784529346 11.0
v -1.2999999999999994 2.2516660498395407 11.0
v -1.5827797154226737 2.0627186847572117 11.0
v -1.8384776310850235 1.8384776310850237 11.0
v -2.062718684757211 1.5827797154226744 11.0
v -2.2516660498395407 1.2999999999999998 11.0
v -2.4020867845293457 0.9949769241492338 11.0
v -2.5114071483515774 0.6729295172665547 11.0
v -2.577756639571907 0.33936809977213517 11.0
v -2.6 3.1840816777831187e-16 11.0
v -2.577756639571907 -0.3393680997721346 11.0
v -2.511407148351578 -0.6729295172665541 11.0
v -2.402086784529346 -0.9949769241492332 11.0
v -2.251666049839541 -1.2999999999999994 11.0
v -2.0627186847572117 -1.5827797154226737 11.0
v -1.8384776310850246 -1.8384776310850226 11.0
v -1.5827797154226744 -2.0627186847572108 11.0
v -1.3000000000000012 -2.2516660498395398 11.0
v -0.9949769241492328 -2.402086784529346 11.0
v -0.6729295172665537 -2.511407148351578 11.0
v -0.3393680997721342 -2.577756639571907 11.0
v -4.776122516674677e-16 -2.6 11.0
v 0.33936809977213334 -2.5777566395719074 11.0
v 0.6729295172665528 -2.511407148351578 11.0
v 0.9949769241492319 -2.402086784529346 11.0
v 1.3000000000000003 -2.25166604983954 11.0
v 1.5827797154226717 -2.062718684757213 11.0
v 1.8384776310850233 -1.838477631085024 11.0
v 2.0627186847572108 -1.5827797154226744 11.0
v 2.2516660498395398 -1.3000000000000012 11.0
v 2.402086784529346 -0.9949769241492329 11.0
v 2.511407148351577 -0.6729295172665561 11.0
v 2.577756639571907 -0.3393680997721344 11.0
v 0.8 0.0 11.0
v 0.7931558890990483 0.10442095377604127 11.0
v 0.7727406610312547 0.2070552360820166 11.0
v 0.7391036260090295 0.30614674589207186 11.0
v 0.692820323027551 0.39999999999999997 11.0
v 0.6346826722329881 0.4870091432069765 11.0
v 0.5656854249492381 0.565685424949238 11.0
v 0.4870091432069765 0.6346826722329881 11.0
v 0.40000000000000013 0.6928203230275509 11.0
v 0.3061467458920719 0.7391036260090295 11.0
v 0.2070552360820166 0.7727406610312547 11.0
v 0.10442095377604138 0.7931558890990483 11.0
v 4.898587196589413e-17 0.8 11.0
v -0.10442095377604128 0.7931558890990483 11.0
v -0.2070552360820165 0.7727406610312547 11.0
v -0.30614674589207164 0.7391036260090296 11.0
v -0.39999999999999986 0.692820323027551 11.0
v -0.4870091432069765 0.6346826722329881 11.0
v -0.565685424949238 0.5656854249492381 11.0
v -0.6346826722329881 0.48700914320697675 11.0
v -0.692820323027551 0.39999999999999997 11.0
v -0.7391036260090295 0.3061467458920719 11.0
v -0.7727406610312546 0.2070552360820168 11.0
v -0.7931558890990483 0.1044209537760416 11.0
v -0.8 9.797174393178826e-17 11.0
v -0.7931558890990483 -0.10442095377604142 11.0
v -0.7727406610312547 -0.20705523608201665 11.0
v -0.7391036260090296 -0.30614674589207175 11.0
v -0.6928203230275511 -0.3999999999999998 11.0
v -0.6346826722329881 -0.4870091432069765 11.0
v -0.5656854249492383 -0.5656854249492377 11.0
v -0.48700914320697675 -0.634682672232988 11.0
v -0.40000000000000036 -0.6928203230275507 11.0
v -0.30614674589207164 -0.7391036260090296 11.0
v -0.2070552360820165 -0.7727406610312547 11.0
v -0.10442095377604131 -0.7931558890990483 11.0
v -1.4695761589768238e-16 -0.8 11.0
v 0.10442095377604102 -0.7931558890990484 11.0
v 0.20705523608201626 -0.7727406610312548 11.0
v 0.30614674589207136 -0.7391036260090296 11.0
v 0.40000000000000013 -0.6928203230275509 11.0
v 0.4870091432069759 -0.6346826722329886 11.0
v 0.5656854249492379 -0.5656854249492381 11.0
v 0.634682672232988 -0.48700914320697675 11.0
v 0.6928203230275507 -0.40000000000000036 11.0
v 0.7391036260090296 -0.3061467458920717 11.0
v 0.7727406610312545 -0.20705523608201726 11.0
v 0.7931558890990483 -0.10442095377604135 11.0
v 0.8 0.0 12.0
v 0.7931558890990483 0.10442095377604127 12.0
v 0.7727406610312547 0.2070552360820166 12.0
v 0.7391036260090295 0.30614674589207186 12.0
v 0.692820323027551 0.39999999999999997 12.0
v 0.6346826722329881 0.4870091432069765 12.0
v 0.5656854249492381 0.565685424949238 12.0
v 0.4870091432069765 0.6346826722329881 12.0
v 0.40000000000000013 0.6928203230275509 12.0
v 0.3061467458920719 0.7391036260090295 12.0
v 0.2070552360820166 0.7727406610312547 12.0
v 0.10442095377604138 0.7931558890990483 12.0
v 4.898587196589413e-17 0.8 12.0
v -0.10442095377604128 0.7931558890990483 12.0
v -0.2070552360820165 0.7727406610312547 12.0
v -0.30614674589207164 0.7391036260090296 12.0
v -0.39999999999999986 0.692820323027551 12.0
v -0.4870091432069765 0.6346826722329881 12.0
v -0.565685424949238 0.5656854249492381 12.0
v -0.6346826722329881 0.48700914320697675 12.0
v -0.692820323027551 0.39999999999999997 12.0
v -0.7391036260090295 0.3061467458920719 12.0
v -0.7727406610312546 0.2070552360820168 12.0
v -0.7931558890990483 0.1044209537760416 12.0
v -0.8 9.797174393178826e-17 12.0
v -0.7931558890990483 -0.10442095377604142 12.0
v -0.7727406610312547 -0.20705523608201665 12.0
v -0.7391036260090296 -0.30614674589207175 12.0
v -0.6928203230275511 -0.3999999999999998 12.0
v -0.6346826722329881 -0.4870091432069765 12.0
v -0.5656854249492383 -0.5656854249492377 12.0
v -0.48700914320697675 -0.634682672232988 12.0
v -0.40000000000000036 -0.6928203230275507 12.0
v -0.30614674589207164 -0.7391036260090296 12.0
v -0.2070552360820165 -0.7727406610312547 12.0
v -0.10442095377604131 -0.7931558890990483 12.0
v -1.4695761589768238e-16 -0.8 12.0
v 0.10442095377604102 -0.7931558890990484 12.0
v 0.20705523608201626 -0.7727406610312548 12.0
v 0.30614674589207136 -0.7391036260090296 12.0
v 0.40000000000000013 -0.6928203230275509 12.0
v 0.4870091432069759 -0.6346826722329886 12.0
v 0.5656854249492379 -0.5656854249492381 12.0
v 0.634682672232988 -0.48700914320697675 12.0
v 0.6928203230275507 -0.40000000000000036 12.0
v 0.7391036260090296 -0.3061467458920717 12.0
v 0.7727406610312545 -0.20705523608201726 12.0
v 0.7931558890990483 -0.10442095377604135 12.0
v 0.4 0.0 12.0
v 0.39657794454952416 0.052210476888020635 12.0
v 0.38637033051562736 0.1035276180410083 12.0
v 0.36955181300451473 0.15307337294603593 12.0
v 0.3464101615137755 0.19999999999999998 12.0
v 0.31734133611649407 0.24350457160348826 12.0
v 0.28284271247461906 0.282842712474619 12.0
v 0.24350457160348826 0.31734133611649407 12.0
v 0.20000000000000007 0.34641016151377546 12.0
v 0.15307337294603596 0.36955181300451473 12.0
v 0.1035276180410083 0.38637033051562736 12.0
v 0.05221047688802069 0.39657794454952416 12.0
v 2.4492935982947065e-17 0.4 12.0
v -0.05221047688802064 0.39657794454952416 12.0
v -0.10352761804100825 0.38637033051562736 12.0
v -0.15307337294603582 0.3695518130045148 12.0
v -0.19999999999999993 0.3464101615137755 12.0
v -0.24350457160348826 0.31734133611649407 12.0
v -0.282842712474619 0.28284271247461906 12.0
v -0.31734133611649407 0.24350457160348837 12.0
v -0.3464101615137755 0.19999999999999998 12.0
v -0.36955181300451473 0.15307337294603596 12.0
v -0.3863703305156273 0.1035276180410084 12.0
v -0.39657794454952416 0.0522104768880208 12.0
v -0.4 4.898587196589413e-17 12.0
v -0.39657794454952416 -0.05221047688802071 12.0
v -0.38637033051562736 -0.10352761804100832 12.0
v -0.3695518130045148 -0.15307337294603587 12.0
v -0.34641016151377557 -0.1999999999999999 12.0
v -0.31734133611649407 -0.24350457160348826 12.0
v -0.2828427124746192 -0.28284271247461884 12.0
v -0.24350457160348837 -0.317341336116494 12.0
v -0.20000000000000018 -0.34641016151377535 12.0
v -0.15307337294603582 -0.3695518130045148 12.0
v -0.10352761804100825 -0.38637033051562736 12.0
v -0.052210476888020656 -0.39657794454952416 12.0
v -7.347880794884119e-17 -0.4 12.0
v 0.05221047688802051 -0.3965779445495242 12.0
v 0.10352761804100813 -0.3863703305156274 12.0
v 0.15307337294603568 -0.3695518130045148 12.0
v 0.20000000000000007 -0.34641016151377546 12.0
v 0.24350457160348796 -0.3173413361164943 12.0
v 0.28284271247461895 -0.28284271247461906 12.0
v 0.317341336116494 -0.24350457160348837 12.0
v 0.34641016151377535 -0.20000000000000018 12.0
v 0.3695518130045148 -0.15307337294603585 12.0
v 0.38637033051562725 -0.10352761804100863 12.0
v 0.39657794454952416 -0.05221047688802068 12.0
v 0.4 0.0 11.0
v 0.39657794454952416 0.052210476888020635 11.0
v 0.38637033051562736 0.1035276180410083 11.0
v 0.36955181300451473 0.15307337294603593 11.0
v 0.3464101615137755 0.19999999999999998 11.0
v 0.31734133611649407 0.24350457160348826 11.0
v 0.28284271247461906 0.282842712474619 11.0
v 0.24350457160348826 0.31734133611649407 11.0
v 0.20000000000000007 0.34641016151377546 11.0
v 0.15307337294603596 0.36955181300451473 11.0
v 0.1035276180410083 0.38637033051562736 11.0
v 0.05221047688802069 0.39657794454952416 11.0
v 2.4492935982947065e-17 0.4 11.0
v -0.05221047688802064 0.39657794454952416 11.0
v -0.10352761804100825 0.38637033051562736 11.0
v -0.15307337294603582 0.3695518130045148 11.0
v -0.19999999999999993 0.3464101615137755 11.0
v -0.24350457160348826 0.31734133611649407 11.0
v -0.282842712474619 0.28284271247461906 11.0
v -0.31734133611649407 0.24350457160348837 11.0
v -0.3464101615137755 0.19999999999999998 11.0
v -0.36955181300451473 0.15307337294603596 11.0
v -0.3863703305156273 0.1035276180410084 11.0
v -0.39657794454952416 0.0522104768880208 11.0
v -0.4 4.898587196589413e-17 11.0
v -0.39657794454952416 -0.05221047688802071 11.0
v -0.38637033051562736 -0.10352761804100832 11.0
v -0.3695518130045148 -0.15307337294603587 11.0
v -0.34641016151377557 -0.1999999999999999 11.0
v -0.31734133611649407 -0.24350457160348826 11.0
v -0.2828427124746192 -0.28284271247461884 11.0
v -0.24350457160348837 -0.317341336116494 11.0
v -0.20000000000000018 -0.34641016151377535 11.0
v -0.15307337294603582 -0.3695518130045148 11.0
v -0.10352761804100825 -0.38637033051562736 11.0
v -0.052210476888020656 -0.39657794454952416 11.0
v -7.347880794884119e-17 -0.4 11.0
v 0.05221047688802051 -0.3965779445495242 11.0
v 0.10352761804100813 -0.3863703305156274 11.0
v 0.15307337294603568 -0.3695518130045148 11.0
v 0.20000000000000007 -0.34641016151377546 11.0
v 0.24350457160348796 -0.3173413361164943 11.0
v 0.28284271247461895 -0.28284271247461906 11.0
v 0.317341336116494 -0.24350457160348837 11.0
v 0.34641016151377535 -0.20000000000000018 11.0
v 0.3695518130045148 -0.15307337294603585 11.0
v 0.38637033051562725 -0.10352761804100863 11.0
v 0.39657794454952416 -0.05221047688802068 11.0
v 0.0 0.0 11.0
v 0.0 0.0 11.0
v 0.0 0.0 11.0
v 0.0 0.0 11.0
v 0.0 0.0 11.0
v 0.0 0.0 11.0
v 0.0 0.0 11.0
v 0.0 0.0 11.0
v 0.0 0.0 11.0
v 0.0 0.0 11.0
v 0.0 0.0 11.0
v 0.0 0.0 11.0
v 0.0 0.0 11.0
v -0.0 0.0 11.0
v -0.0 0.0 11.0
v -0.0 0.0 11.0
v -0.0 0.0 11.0
v -0.0 0.0 11.0
v -0.0 0.0 11.0
v -0.0 0.0 11.0
v -0.0 0.0 11.0
v -0.0 0.0 11.0
v -0.0 0.0 11.0
v -0.0 0.0 11.0
v -0.0 0.0 11.0
v -0.0 -0.0 11.0
v -0.0 -0.0 11.0
v -0.0 -0.0 11.0
v -0.0 -0.0 11.0
v -0.0 -0.0 11.0
v -0.0 -0.0 11.0
v -0.0 -0.0 11.0
v -0.0 -0.0 11.0
v -0.0 -0.0 11.0
v -0.0 -0.0 11.0
v -0.0 -0.0 11.0
v -0.0 -0.0 11.0
v 0.0 -0.0 11.0
v 0.0 -0.0 11.0
v 0.0 -0.0 11.0
v 0.0 -0.0 11.0
v 0.0 -0.0 11.0
v 0.0 -0.0 11.0
v 0.0 -0.0 11.0
v 0.0 -0.0 11.0
v 0.0 -0.0 11.0
v 0.0 -0.0 11.0
v 0.0 -0.0 11.0
f 1 2 50 49
f 2 3 51 50
f 3 4 52 51
f 4 5 53 52
f 5 6 54 53
f 6 7 55 54
f 7 8 56 55
f 8 9 57 56
f 9 10 58 57
f 10 11 59 58
f 11 12 60 59
f 12 13 61 60
f 13 14 62 61
f 14 15 63 62
f 15 16 64 63
f 16 17 65 64
f 17 18 66 65
f 18 19 67 66
f 19 20 68 67
f 20 21 69 68
f 21 22 70 69
f 22 23 71 70
f 23 24 72 71
f 24 25 73 72
f 25 26 74 73
f 26 27 75 74
f 27 28 76 75
f 28 29 77 76
f 29 30 78 77
f 30 31 79 78
f 31 32 80 79
f 32 33 81 80
f 33 34 82 81
f 34 35 83 82
f 35 36 84 83
f 36 37 85 84
f 37 38 86 85
f 38 39 87 86
f 39 40 88 87
f 40 41 89 88
f 41 42 90 89
f 42 43 91 90
f 43 44 92 91
f 44 45 93 92
f 45 46 94 93
f 46 47 95 94
f 47 48 96 95
f 48 1 49 96
f 49 50 98 97
f 50 51 99 98
f 51 52 100 99
f 52 53 101 100
f 53 54 102 101
f 54 55 103 102
f 55 56 104 103
f 56 57 105 104
f 57 58 106 105
f 58 59 107 106
f 59 60 108 107
f 60 61 109 108
f 61 62 110 109
f 62 63 111 110
f 63 64 112 111
f 64 65 113 112
f 65 66 114 113
f 66 67 115 114
f 67 68 116 115
f 68 69 117 116
f 69 70 118 117
f 70 71 119 118
f 71 72 120 119
f 72 73 121 120
f 73 74 122 121
f 74 75 123 122
f 75 76 124 123
f 76 77 125 124
f 77 78 126 125
f 78 79 127 126
f 79 80 128 127
f 80 81 129 128
f 81 82 130 129
f 82 83 131 130
f 83 84 132 131
f 84 85 133 132
f 85 86 134 133
f 86 87 135 134
f 87 88 136 135
f 88 89 137 136
f 89 90 138 137
f 90 91 139 138
f 91 92 140 139
f 92 93 141 140
f 93 94 142 141
f 94 95 143 142
f 95 96 144 143
f 96 49 97 144
f 97 98 146 145
f 98 99 147 146
f 99 100 148 147
f 100 101 149 148
f 101 102 150 149
f 102 103 151 150
f 103 104 152 151
f 104 105 153 152
f 105 106 154 153
f 106 107 155 154
f 107 108 156 155
f 108 109 157 156
f 109 110 158 157
f 110 111 159 158
f 111 112 160 159
f 112 113 161 160
f 113 114 162 161
f 114 115 163 162
f 115 116 164 163
f 116 117 165 164
f 117 118 166 165
f 118 119 167 166
f 119 120 168 167
f 120 121 169 168
f 121 122 170 169
f 122 123 171 170
f 123 124 172 171
f 124 125 173 172
f 125 126 174 173
f 126 127 175 174
f 127 128 176 175
f 128 129 177 176
f 129 130 178 177
f 130 131 179 178
f 131 132 180 179
f 132 133 181 180
f 133 134 182 181
f 134 135 183 182
f 135 136 184 183
f 136 137 185 184
f 137 138 186 185
f 138 139 187 186
f 139 140 188 187
f 140 141 189 188
f 141 142 190 189
f 142 143 191 190
f 143 144 192 191
f 144 97 145 192
f 145 146 194 193
f 146 147 195 194
f 147 148 196 195
f 148 149 197 196
f 149 150 198 197
f 150 151 199 198
f 151 152 200 199
f 152 153 201 200
f 153 154 202 201
f 154 155 203 202
f 155 156 204 203
f 156 157 205 204
f 157 158 206 205
f 158 159 207 206
f 159 160 208 207
f 160 161 209 208
f 161 162 210 209
f 162 163 211 210
f 163 164 212 211
f 164 165 213 212
f 165 166 214 213
f 166 167 215 214
f 167 168 216 215
f 168 169 217 216
f 169 170 218 217
f 170 171 219 218
f 171 172 220 219
f 172 173 221 220
f 173 174 222 221
f 174 175 223 222
f 175 176 224 223
f 176 177 225 224
f 177 178 226 225
f 178 179 227 226
f 179 180 228 227
f 180 181 229 228
f 181 182 230 229
f 182 183 231 230
f 183 184 232 231
f 184 185 233 232
f 185 186 234 233
f 186 187 235 234
f 187 188 236 235
f 188 189 237 236
f 189 190 238 237
f 190 191 239 238
f 191 192 240 239
f 192 145 193 240
f 193 194 242 241
f 194 195 243 242
f 195 196 244 243
f 196 197 245 244
f 197 198 246 245
f 198 199 247 246
f 199 200 248 247
f 200 201 249 248
f 201 202 250 249
f 202 203 251 250
f 203 204 252 251
f 204 205 253 252
f 205 206 254 253
f 206 207 255 254
f 207 208 256 255
f 208 209 257 256
f 209 210 258 257
f 210 211 259 258
f 211 212 260 259
f 212 213 261 260
f 213 214 262 261
f 214 215 263 262
f 215 216 264 263
f 216 217 265 264
f 217 218 266 265
f 218 219 267 266
f 219 220 268 267
f 220 221 269 268
f 221 222 270 269
f 222 223 271 270
f 223 224 272 271
f 224 225 273 272
f 225 226 274 273
f 226 227 275 274
f 227 228 276 275
f 228 229 277 276
f 229 230 278 277
f 230 231 279 278
f 231 232 280 279
f 232 233 281 280
f 233 234 282 281
f 234 235 283 282
f 235 236 284 283
f 236 237 285 284
f 237 238 286 285
f 238 239 287 286
f 239 240 288 287
f 240 193 241 288
f 241 242 290 289
f 242 243 291 290
f 243 244 292 291
f 244 245 293 292
f 245 246 294 293
f 246 247 295 294
f 247 248 296 295
f 248 249 297 296
f 249 250 298 297
f 250 251 299 298
f 251 252 300 299
f 252 253 301 300
f 253 254 302 301
f 254 255 303 302
f 255 256 304 303
f 256 257 305 304
f 257 258 306 305
f 258 259 307 306
f 259 260 308 307
f 260 261 309 308
f 261 262 310 309
f 262 263 311 310
f 263 264 312 311
f 264 265 313 312
f 265 266 314 313
f 266 267 315 314
f 267 268 316 315
f 268 269 317 316
f 269 270 318 317
f 270 271 319 318
f 271 272 320 319
f 272 273 321 320
f 273 274 322 321
f 274 275 323 322
f 275 276 324 323
f 276 277 325 324
f 277 278 326 325
f 278 279 327 326
f 279 280 328 327
f 280 281 329 328
f 281 282 330 329
f 282 283 331 330
f 283 284 332 331
f 284 285 333 332
f 285 286 334 333
f 286 287 335 334
f 287 288 336 335
f 288 241 289 336
f 289 290 338 337
f 290 291 339 338
f 291 292 340 339
f 292 293 341 340
f 293 294 342 341
f 294 295 343 342
f 295 296 344 343
f 296 297 345 344
f 297 298 346 345
f 298 299 347 346
f 299 300 348 347
f 300 301 349 348
f 301 302 350 349
f 302 303 351 350
f 303 304 352 351
f 304 305 353 352
f 305 306 354 353
f 306 307 355 354
f 307 308 356 355
f 308 309 357 356
f 309 310 358 357
f 310 311 359 358
f 311 312 360 359
f 312 313 361 360
f 313 314 362 361
f 314 315 363 362
f 315 316 364 363
f 316 317 365 364
f 317 318 366 365
f 318 319 367 366
f 319 320 368 367
f 320 321 369 368
f 321 322 370 369
f 322 323 371 370
f 323 324 372 371
f 324 325 373 372
f 325 326 374 373
f 326 327 375 374
f 327 328 376 375
f 328 329 377 376
f 329 330 378 377
f 330 331 379 378
f 331 332 380 379
f 332 333 381 380
f 333 334 382 381
f 334 335 383 382
f 335 336 384 383
f 336 289 337 384
f 337 338 386 385
f 338 339 387 386
f 339 340 388 387
f 340 341 389 388
f 341 342 390 389
f 342 343 391 390
f 343 344 392 391
f 344 345 393 392
f 345 346 394 393
f 346 347 395 394
f 347 348 396 395
f 348 349 397 396
f 349 350 398 397
f 350 351 399 398
f 351 352 400 399
f 352 353 401 400
f 353 354 402 401
f 354 355 403 402
f 355 356 404 403
f 356 357 405 404
f 357 358 406 405
f 358 359 407 406
f 359 360 408 407
f 360 361 409 408
f 361 362 410 409
f 362 363 411 410
f 363 364 412 411
f 364 365 413 412
f 365 366 414 413
f 366 367 415 414
f 367 368 416 415
f 368 369 417 416
f 369 370 418 417
f 370 371 419 418
f 371 372 420 419
f 372 373 421 420
f 373 374 422 421
f 374 375 423 422
f 375 376 424 423
f 376 377 425 424
f 377 378 426 425
f 378 379 427 426
f 379 380 428 427
f 380 381 429 428
f 381 382 430 429
f 382 383 431 430
f 383 384 432 431
f 384 337 385 432
f 385 386 434 433
f 386 387 435 434
f 387 388 436 435
f 388 389 437 436
f 389 390 438 437
f 390 391 439 438
f 391 392 440 439
f 392 393 441 440
f 393 394 442 441
f 394 395 443 442
f 395 396 444 443
f 396 397 445 444
f 397 398 446 445
f 398 399 447 446
f 399 400 448 447
f 400 401 449 448
f 401 402 450 449
f 402 403 451 450
f 403 404 452 451
f 404 405 453 452
f 405 406 454 453
f 406 407 455 454
f 407 408 456 455
f 408 409 457 456
f 409 410 458 457
f 410 411 459 458
f 411 412 460 459
f 412 413 461 460
f 413 414 462 461
f 414 415 463 462
f 415 416 464 463
f 416 417 465 464
f 417 418 466 465
f 418 419 467 466
f 419 420 468 467
f 420 421 469 468
f 421 422 470 469
f 422 423 471 470
f 423 424 472 471
f 424 425 473 472
f 425 426 474 473
f 426 427 475 474
f 427 428 476 475
f 428 429 477 476
f 429 430 478 477
f 430 431 479 478
f 431 432 480 479
f 432 385 433 480
f 433 434 482 481
f 434 435 483 482
f 435 436 484 483
f 436 437 485 484
f 437 438 486 485
f 438 439 487 486
f 439 440 488 487
f 440 441 489 488
f 441 442 490 489
f 442 443 491 490
f 443 444 492 491
f 444 445 493 492
f 445 446 494 493
f 446 447 495 494
f 447 448 496 495
f 448 449 497 496
f 449 450 498 497
f 450 451 499 498
f 451 452 500 499
f 452 453 501 500
f 453 454 502 501
f 454 455 503 502
f 455 456 504 503
f 456 457 505 504
f 457 458 506 505
f 458 459 507 506
f 459 460 508 507
f 460 461 509 508
f 461 462 510 509
f 462 463 511 510
f 463 464 512 511
f 464 465 513 512
f 465 466 514 513
f 466 467 515 514
f 467 468 516 515
f 468 469 517 516
f 469 470 518 517
f 470 471 519 518
f 471 472 520 519
f 472 473 521 520
f 473 474 522 521
f 474 475 523 522
f 475 476 524 523
f 476 477 525 524
f 477 478 526 525
f 478 479 527 526
f 479 480 528 527
f 480 433 481 528
f 481 482 530 529
f 482 483 531 530
f 483 484 532 531
f 484 485 533 532
f 485 486 534 533
f 486 487 535 534
f 487 488 536 535
f 488 489 537 536
f 489 490 538 537
f 490 491 539 538
f 491 492 540 539
f 492 493 541 540
f 493 494 542 541
f 494 495 543 542
f 495 496 544 543
f 496 497 545 544
f 497 498 546 545
f 498 499 547 546
f 499 500 548 547
f 500 501 549 548
f 501 502 550 549
f 502 503 551 550
f 503 504 552 551
f 504 505 553 552
f 505 506 554 553
f 506 507 555 554
f 507 508 556 555
f 508 509 557 556
f 509 510 558 557
f 510 511 559 558
f 511 512 560 559
f 512 513 561 560
f 513 514 562 561
f 514 515 563 562
f 515 516 564 563
f 516 517 565 564
f 517 518 566 565
f 518 519 567 566
f 519 520 568 567
f 520 521 569 568
f 521 522 570 569
f 522 523 571 570
f 523 524 572 571
f 524 525 573 572
f 525 526 574 573
f 526 527 575 574
f 527 528 576 575
f 528 481 529 576
